/* XPM */
static char *bf7fd6043b464d98db83da59b99ab6fcv9CHQNOTvHhVBQR7[] = {
/* columns rows colors chars-per-pixel */
"64 64 245 2 ",
"   c #020301",
".  c #090600",
"X  c #141502",
"o  c #111102",
"O  c #281607",
"+  c #1C2B02",
"@  c #192809",
"#  c #183202",
"$  c #1C251B",
"%  c #1A2917",
"&  c #1A3212",
"*  c #242707",
"=  c #232617",
"-  c #333612",
";  c #1E1F2C",
":  c #231F29",
">  c #1C232A",
",  c #1C2522",
"<  c #1E2237",
"1  c #222426",
"2  c #2D3530",
"3  c #4E3609",
"4  c #4B392A",
"5  c #2D4706",
"6  c #3D4616",
"7  c #23461C",
"8  c #324E2B",
"9  c #514C16",
"0  c #434929",
"q  c #465A2A",
"w  c #465734",
"e  c #534931",
"r  c #7B5729",
"t  c #695533",
"y  c #556933",
"u  c #717036",
"i  c #6D4916",
"p  c #3B4F49",
"a  c #4B5847",
"s  c #4B5957",
"d  c #56564D",
"f  c #71574A",
"g  c #557748",
"h  c #536950",
"j  c #6D6E50",
"k  c #5C7B76",
"l  c #556F65",
"z  c #6C7668",
"x  c #6A7776",
"c  c #777C7A",
"v  c #6B7168",
"b  c #876738",
"n  c #946B3B",
"m  c #8D733A",
"M  c #926135",
"N  c #865C49",
"B  c #876A44",
"V  c #887B45",
"C  c #967747",
"Z  c #987E56",
"A  c #8C774F",
"S  c #AB7E4B",
"D  c #A67C45",
"F  c #A27E55",
"G  c #B07D48",
"H  c #827E6A",
"J  c #728C3B",
"K  c #788747",
"L  c #698957",
"P  c #778C58",
"I  c #6B925D",
"U  c #77945B",
"Y  c #698347",
"T  c #7CA55C",
"R  c #7CA95B",
"E  c #7AA557",
"W  c #7EA44F",
"Q  c #5C8568",
"!  c #6D8C64",
"~  c #6C8C6C",
"^  c #658B66",
"/  c #738C65",
"(  c #768967",
")  c #6B9264",
"_  c #6B926B",
"`  c #7C9D63",
"'  c #779767",
"]  c #668A77",
"[  c #758778",
"{  c #699072",
"}  c #789777",
"|  c #76A564",
" . c #7AA564",
".. c #76A964",
"X. c #7CA964",
"o. c #76A56A",
"O. c #7BA46B",
"+. c #7AA969",
"@. c #7DA472",
"#. c #8E843B",
"$. c #A4843E",
"%. c #888948",
"&. c #9D844B",
"*. c #99874A",
"=. c #878955",
"-. c #988656",
";. c #869C59",
":. c #8F9650",
">. c #A38444",
",. c #A98444",
"<. c #A4844B",
"1. c #AA824B",
"2. c #A58948",
"3. c #A58457",
"4. c #A5955B",
"5. c #87A44E",
"6. c #97B64E",
"7. c #83A354",
"8. c #83A35C",
"9. c #83AA5B",
"0. c #8AAE5C",
"q. c #88A756",
"w. c #9AAB59",
"e. c #8DB35C",
"r. c #8DB459",
"t. c #94B655",
"y. c #9BB555",
"u. c #95B955",
"i. c #99B955",
"p. c #94B65B",
"a. c #9AB65B",
"s. c #95B95A",
"d. c #9ABA5B",
"f. c #8EB04F",
"g. c #A4A85A",
"h. c #A3B355",
"j. c #A2B45B",
"k. c #A2BA5D",
"l. c #ACBB5C",
"z. c #A7B657",
"x. c #B3BC5E",
"c. c #BBBA5E",
"v. c #B7B65D",
"b. c #869967",
"n. c #999C64",
"m. c #839978",
"M. c #908B72",
"N. c #A68F61",
"B. c #83A362",
"V. c #83AA64",
"C. c #81A46A",
"Z. c #88A967",
"A. c #92AB66",
"S. c #99AA68",
"D. c #8CB464",
"F. c #8CB66B",
"G. c #8BB766",
"H. c #94B563",
"J. c #9BB463",
"K. c #94BA63",
"L. c #9AB962",
"P. c #94B46B",
"I. c #9BB56B",
"U. c #93BA6A",
"Y. c #99BC68",
"T. c #87A677",
"R. c #98AC77",
"E. c #8AB373",
"W. c #9BB373",
"Q. c #95B478",
"!. c #A6AA65",
"~. c #ABBB62",
"^. c #ACBC6C",
"/. c #A7B666",
"(. c #BBB762",
"). c #B4BC64",
"_. c #BBBB64",
"`. c #B4BC6C",
"'. c #BBBB6A",
"]. c #B7B469",
"[. c #A5AB76",
"{. c #ACBC73",
"}. c #ADBC7C",
"|. c #AAB576",
" X c #B3BB73",
".X c #BBBB72",
"XX c #B3BB7B",
"oX c #B8B777",
"OX c #B4A665",
"+X c #C1BC68",
"@X c #AAC25C",
"#X c #B2C05F",
"$X c #ADC263",
"%X c #ACC16C",
"&X c #B4C165",
"*X c #BBC166",
"=X c #B4C26B",
"-X c #BBC16B",
";X c #ACC273",
":X c #A8C07B",
">X c #B8C175",
",X c #C2C164",
"<X c #7D7E83",
"1X c #7D8885",
"2X c #779994",
"3X c #6F8F87",
"4X c #78A493",
"5X c #7BA385",
"6X c #7CAFA0",
"7X c #899684",
"8X c #989A87",
"9X c #889A97",
"0X c #959C9B",
"qX c #858B8D",
"wX c #99A984",
"eX c #84A899",
"rX c #97A59A",
"tX c #93B390",
"yX c #A9BA87",
"uX c #B5B887",
"iX c #A3A99A",
"pX c #B6B696",
"aX c #A5AD89",
"sX c #949BA4",
"dX c #88AAA6",
"fX c #9CA4A3",
"gX c #9EA9A4",
"hX c #8CB4AC",
"jX c #89B6A7",
"kX c #8BB8B2",
"lX c #93B7B5",
"zX c #94B7A7",
"xX c #A2ACA4",
"cX c #A4ABAB",
"vX c #A4A7AA",
"bX c #B2AEA9",
"nX c #C1B598",
"mX c #CBBEAE",
"MX c #B0C28B",
"NX c #9CC6AD",
"BX c #A9CAB6",
"VX c #B7CCB4",
"CX c #CECBB6",
"ZX c #B8D1C1",
"AX c #D4DBC4",
/* pixels */
"%..X(.+X(._.v..X- = % 8 I.t.i.a.5 7 1 > $ - W.P.I.5 2 % 8 @.o.O. .o.[ % - u ].(.(._.'._.(._.V 4 1 < sX9X< 1 XX(.c._.(.(.'..XuX* ",
"=.oX.X'.v.(.*X`.uX0 - R.P.s.t.s.P.wX2 , % aXP.p.H.W.m.& 8 C.C.` B.b.@ * uXoX+X(.(.(._.+X_._.].uX= 1 > > 1 * oX(._.v._._.(..XuX* ",
"$ = uX.X*Xx.&X^.}.6 # I.p.d.d.a.L.W.2 , @ R.H.d.d.a.;.8.8.8.8.q./.`.* XXoX'.+X(.(._.+X(.(._.'. XuX@ = 0 uXoX'.(.v.(.'._._..XuX* ",
"< 1 * XX).l.h.j./.J.J.L.d.t.d.u.t.I.- $ % aXH.u.i.y.=X%X^.;X^.>X`.'.'..X'._.c.c._.(.+X+X_.(._.`.uX= = 4 oX_.(.(._._._._.'. XpX* ",
"; > $ h ^.h.y.a.a.d.p.t.u.u.i.t.d.J.j a % a I.t.y.k.@Xz.~.~.`.)._.+X)._.)._._.(._._._._.'._.). Xj 1 1 e oX(.(._.v.,Xv..XS.j j $ ",
", 1 1 % S.y.a.a.u.u.s.s.t.u.u.d.i.a.J.U & & P.d.a.$X@X6.h.h.*X).'._.).&X).).'._.).).).'.).'. XuX= $ = 6 XX&X_.).c.(..XuXb.@ $ $ ",
"w * = @ /.k.a.d.u.u.p.p.d.u.t.u.u.u.a.L.H.H.K.a.a.$Xy.y.y.j.h.).).`.l.&X'.(.].`.&Xz.y.h.j.{.j @ = + S.%Xa.y.=X)._. X* = % @ * @ ",
"uXuXpX* J.y.a.a.u.u.s.s.t.u.u.s.u.s.u.t.u.u.s.s.a.i.i.i.u.t.y.y.j.a.h.y.`.].g.].j.y.w.w.w./.u * yXW.a.y.y.d.y.j.h. X= $ 0 wX[.}.",
".X.X.X/.).~.y.d.i.6.u.u.u.s.u.s.s.s.a.y.d.s.a.s.s.t.s.s.t.s.d.i.y.y.i.d.!.J V u !.:.u %.:.a.J./.P.H.t.u.i.i.i.y.y.y.A.A.A.J./.`.",
"_._.).l.~.k.a.t.u.u.s.s.s.a.a.u.s.a.d.d.t.t.d.s.d.a.s.s.s.s.s.u.y.6.u.a.J.K *.V :.V A -.K a.l.$Xt.u.y.y.i.u.u.t.t.d.s.a.d.a.y.$X",
").-X=Xj.a.d.s.s.p.K.U.U.P.H.a.u.u.u.t.t.i.i.s.t.y.a.t.t.s.s.a.d.6.i.s.a.J.%.*.u V &.b *.:.a.k.$Xt.u.a.a.a.a.s.s.u.s.t.d.i.y.y.%X",
"j.w.S.W.H.e.K.W R R T T T 9.e.p.s.s.p.s.s.s.t.d.d.d.a.d.s.a.a.a.j.a.J.J.!.u -.3 3 &.b #.w.d.y.a.d.s.a.J.a.p.s.p.u.s.H.H.J.a.a.a.",
"I.W.+ # C. . . .|  .X.+.O. .T R G.R R X.R R r.d.y.y.a.a.t.a.`. X/.|.!.!.4.r C 3 3 b %.#.y.s.a.a.s.p.p.p.K.s.u.u.t.H.# + q W.I.P.",
"q w % l @.O.o.o.o.| | | O.O.o.X.V.T | +.|  .9.p.a.y./.^.^./.g.V 9 - 9 A -.3.3.3.C C %.w.a.t.a.H.0.9.9.e.H.s.u.u.i.H.Y L g q q q ",
", % % m.O.+.| |  . . . .o. .| |  .O.o. .O.O.C.Z.S.!.:.u 3 3 r C B B Z C 3 O 3 B <.&.u :.t.d.H.H.T | T X.e.p.i.y.t.d.H.A.P + $ , ",
"$ % m.C.X.E T T T R R T  . . . .o.' / / / ! h 8 * 9 m &.3.F S C b r n F B B B C 1.<.*.y p.K.9.9.T  ...T 9.p.d.y.d.t.s.L.P.wX$ > ",
"P.W.P.8.R 0.H.p.s.s.p.K.T  . .O.b.w X         . t 3.3.S S 1.S n b 3 r F N.- * Z <.D <.*.;.T T R H.K.R R X.E K.p.a.d.u.s.K.Q.m.$ ",
"d.s.p.p.K.p.s.d.u.u.t.s.D.V.+.O./ -           . O F 3.S G D D 2.N.C C 3.N.i A &.<.1.1.&.K T D.K.a.d.G.D.R R 7.e.d.t.d.p.e.T m.% ",
"u.u.t.u.d.s.u.u.s.s.u.s.H.T  .` h X           . o 3.<.1.,.,.,.>.2.<.<.1.C >.2.>.>.1.1.&.K 0.e.p.d.t.s.K.7.9.5.f.a.d.p.H.D. .O.8 ",
"u.i.i.t.t.s.d.u.t.s.u.s.s.7.X.` w o           . O -.&.2.$.>.2.>.&.2.>.2.,.$.>.>.>.1.D >.%.J.K.s.s.p.K.K.Y.H.a.s.t.s.U.E T O.O.@.",
"u.t.a.d.i.t.s.s.i.i.6.i.u.p.H.A.w o           . o -.&.>.>.>.>.>.1.1.2.>.>.$.>.>.>.>.,.&.%.H.H.K.D.8.T X.T T K.s.s.p.D.T X.| o. .",
"s.s.H.P.H.H.H.H.a.t.s.s.K.K.H.A.h X             o -.*.*.2.2.>.>.,.1.>.2.>.,.,.>.>.>.,.&.%.8.8.T X. . . .| +.R 0.D.U.R ..| | o.@.",
"J D.U ' ' ' ' U U.K.D.U ) ` V.P.P =       .     o -.*.*.&.>.>.>.,.>.>.>.$.,.D ,.D D G &.P  . . .+.| ....| +. .X.V.X.X.+.| @.8 8 ",
"Y E.! ~ ! ! ! / E.E.E.) _ ) ` E.R.0 o           X =.*.*.&.>.,.,.>.>.>.>.>.,.1.D D D G 3.P +. .X.| ....| ..| | +. .| | X.| ' % $ ",
"$ $ [ [ P P / ~ ~ _ ) ! / ~ _ ! W.=.* .       . 0 =.*.*.*.&.2.>.>.>.>.>.,.<.r F D G S &.P  .T X. .|  . .T R R R  .| O. .g # @ % ",
"a = = + yX}.yX( / / U yXyXP / P {.^.=.j X     w j :.:.*.*.2.2.>.>.>.2.D n i r C S S D *.;.V.V.U.F.9.T 9.H.U.D.9.T  . .+.C.Q.tXwX",
"oXoXoX.X`.=X X X X`.`.>X.X`.`. X'.'.].oX=.6 + j b.=.:.*.*.*.$.$.C b i r n M D S 1.D <.4.;.8.9.U.U.K.s.a.a.t.s.K.U.R | o.O.O.O.O.",
"'._.(._.).).).`._._._.v.(._.(.(._.(.+X'. X;.P ' q 9 9 9 u *.>.2.>.C n B n D S S S 3.-.n.S.A.I.J.a.t.i.i.d.i.u.t.r.R  .o.o.o. . .",
"'.'._.).=X;X^.=X)._._._._._.(.(.+Xv.+X`.{.;.C.O.L Z.;.K t -.&.&.<.<.C C D S 3.F 3.Z t f b.|./.h.y.i.i.u.a.p.i.d.s.W X.+. .T C.+.",
").).`.%Xq.7.7.5. X`.`.`.).`.`.`.`.`.~.^.8.B.| o.O.B.}.=.0 t j -.-.3.-.Z 3.-.A t e f d 8XM.K /.-X@Xd.i.t.s.s.s.t.s.7.T T 8.8.8.:X",
").&X5.7.8.T 9.E 8.8.q.:X:X8.B.T T 8.B.T X. .X. . .C.b.( ( m.h z M.j j j H M.H e e 8XiXiXiXR.|.^.a.t.a.a.d.s.t.9.7.7.;X;X^.{.:X# ",
"h.y.p.H.D.F.G.R R T 8.Z.Z. . .| |  . . . .| +.| O.` ' j 7XfXrXrX7Xz d a v 7XrXiXiXxXxXqXiX8X=.S.J.a.a.a.u.u.s.p.p.H.J.j.k.j.J.;.",
"t.a.s.p.e.K.G.7.9.R 9.V.T  . .|  . . .| o.+.| o. .O.! a 1XrXrXrXrXfXcXcXxXxXxXxXcXfXs cXrXrXR.b.A.H.s.u.u.u.t.s.p.a.a.a.a.a.a.p.",
"H.H.s.t.d.p.r.p.p.K.K.F.R T X.X. . .X. .| |  . . .O.T.wXz 0X0X9XrXrXfXfXgXfXgXgXcX0Xl fXfXxX7XP 8.K.a.u.u.u.u.u.d.a.a.a.t.d.s.p.",
"K W.J.a.t.d.s.u.u.u.s.K.D.F.F.F.E.| |  . .X.T R T  .m.m.v vXcXcXgXgXgXgXxXxXxXfXcXvXx sXfX0XiXT.U K.p.a.d.t.t.u.t.d.u.d.u.t.s.s.",
"+ # J.k.i.t.s.p.s.s.p.e.9.R R X.+.o.+. .X.F.K.K.U.T T.m.s cXvXcXcXxXcXgXgXgXcXcXcXvXx qXqXcXiXwX8.K.s.s.s.d.t.t.u.u.u.u.s.s.L.p.",
"u y L.t.s.s.0.0.0.0.V.V. . .|  .| | X.T V.U.s.p.K.Z.b.m.c 0XfXfXvXfXvXcXcXfXvXvXcX0Xs fXfXiXwX[.S.a.a.s.t.u.u.u.u.i.6.u.d.p.I.y ",
"I.I.a.i.s.f.W 7.R E E T T X.X.T X.T R 9.U.s.t.d.p.D.U j z a [ c c <XqX9X0X0X0X1Xc v 0XgXcXiXR.S. X/.a.d.t.u.u.t.u.u.u.i.t.L.I.+ ",
"=X~.y.y.y.d.d.a.p.s.s.K.p.p.p.K.K.K.K.p.t.y.u.u.s.H.B.' z l l p > p l x qX1Xx p s p x 9XrX8Xn.|..X).j.y.t.u.u.t.d.t.u.u.u.t.a.J.",
"$X$X$Xy.y.t.d.t.u.s.t.u.u.s.u.s.s.t.u.d.y.i.i.6.t.K.P.T.! [ eXk 2 s x x 1Xx x l 9XrXx l [ 7Xb.XX'._.h.h.a.y.a.a.t.d.u.u.u.d.t.a.",
"j.a.y.d.a.s.s.u.s.s.u.u.u.u.u.u.i.i.i.i.i.i.i.i.s.p.H.A.P g jX2Xk s s k 1X9X9XdXjXzX4Xl ] } ' B.%X&Xx.).).).=Xk.a.y.a.d.y.i.a.s.",
"w.J.a.a.t.s.s.s.s.u.u.u.u.u.u.u.y.y.i.u.u.u.u.s.t.d.p.P.` ) jXjX2X3X] s 3X9XdXhXjXjX6X4XdX{ ) T J.=X).).'.`.).~.a.~.a.d.d.L.p.J ",
"W.W.H.a.s.u.s.s.u.u.u.u.a.s.i.i.a.a.u.u.u.s.s.s.a.s.t.J.A.` 5XkXhXhXhXk 2XdXkXkXjXkXkXjXjX] _  .8.^.;X^.`.^.;X;X;X%X%X;X:XMXB.# ",
"# # J.s.t.u.t.s.u.u.i.i.i.a.i.i.i.u.u.u.u.s.s.s.s.i.d.p.P.' { kXhXkXlX2X2XlXlXkXkXkXkXkXeXQ ) o.T 8.8.8.7.7.8.8.8.8.7.;.8.b.O.O.",
"K I.t.u.u.t.d.a.a.i.y.y.i.i.i.i.u.u.u.u.u.u.u.s.s.s.a.5.;.L Q eX2XdXlXdX3XdXlXlXlXkXkXkX4XQ ' | +. . . . . .X.X.X.T V.X.+.O.o.+.",
"J p.d.d.u.t.d.t.a.i.i.i.i.u.u.u.u.u.u.u.u.u.u.u.u.s.a.p.A.' 5XjXeXdXlXlXk dXlX3X3XlXlXhXeX^ o.+. .+.+.....| |  .+. . . .| | X. .",
"J p.a.a.s.d.f.d.i.i.i.u.s.s.s.s.u.u.s.s.a.i.i.u.u.t.t.d.H.B.} eXzXhXlXhX3XeXlXdXdXlXjXzX4X^ @.|  . .T E E R X.X. .+. .| X.| |  .",
"J p.a.a.a.s.i.u.u.u.u.s.H.H.U.U.H.H.U.U.H.H.s.u.s.s.K.H.P.Z.T.5Xl l k ] ] p p 3X2XdXhXjX5X8 g O.+.R D.Y.p.H.H.0.T T T R R E R F.",
"s.s.p.s.t.i.i.u.s.s.s.s.P.Q.O.I ) ) ) ) I E.K.u.K.F.I ) ! _ } tXNXNXBXBXBXs zXBXeX] ] 4XNX5Xg  .R Y.p.s.s.a.a.a.U.7.p.K.e.p.p.p.",
"t.d.s.s.t.t.u.t.s.p.s.U.P U ) ) _ ~ { { ^ ) D.K.P.I ! ~ { { ~ } zXBXVXVXVXrXBXZXVXVXZXVXBXtXL 8.R K.p.t.d.a.y.y.a.s.s.u.p.L.p.L.",
"d.t.y.y.6.i.s.s.s.p.D.V./ ! ' b.b.m._ ] } ~ T.C.T.) / } ^ a z d = = - 4 d j 8X7Xv v c M.z y S.S.T V.K.s.s.a.a.a.d.t.s.K.Z.Y Y W.",
"y.a.U.U.p.p.H.H.U.U.E.I ! / A.XX{.MX' / ( ! ! ) ) ! / m.( AXAXAX8XM.f e f j 0 = d 2 e f e A OX X8.R r.t.s.p.s.s.t.y.y.a.K + + aX",
"t.U.I I Q.Q.Q.U ) ^ ^ ~ ( yXXX`.)._.'..XuX=.P I I / |.n.( CXCXCXAXM.t N f 4 M.bXM.e 4 f N b OX`.%Xa.s.s.s.p.p.a.d.y.h.h.~.XX* * ",
"U.Q._ { L ) / / / ! { ~ P yX X'._.c.+X(.'.oXyXZ.P }.XXn.K pXMXVXVXnX-.t e nXCXmXCXCXf N M r OX'._.h.y.y.u.u.s.s.y.&X#Xx._.].oXuX",
"g 8 { { _ ^ ~ / R.W.R./ ! b.S.'._.v._._.'.'.>X!./.`.'.].:.9 u =.=.A -.A t pXCX8XCXCXpXj t m ].'.(.v.x.l.i.u.p.a.y.).x._._.'.]..X",
"p % [ ~ ) ^ ~ '  X>X|.U ' P S.`.)._._._._.(._._._.'._._.].].!.n.n.[.].oX[.b.M.[.aXwXb.[.n.!.'.'._.(.).l.y.y.d.a.y.#Xx.).x.).).).",
"s , iX( P P P }.`.'.).`.>XK w.*X)._.(.+X(.c._._.).'._._.).'.`.).^.`._.'.`.%.u S.[.[.b.K /.].(._._.)._.~.h.y.y.y.y.y.y.y.y.y.y.y.",
"> > % aXuXuX{.`.).(.(._.'.'.-Xx._.).`.`.`.-X).).`.).'._.*X).h.y.j.y.h.x.*X)./.`.}.A.;.8.^.).+X(._.)._.).).).$Xk.y.d.t.u.u.u.t.u.",
"; > 1 = * y  X(._._._.).(._.).'._.`.q.B.C.;.;.I.)._.(._.~.a.y.i.y.d.y.y.x._.*X`.8.` C.T q.=X*X_._._._.c.c.*Xl.).%Xa.d.i.t.d.t.d.",
"; 1 $ j j =.'._.l.l.l.z.~.`.-X`.`.J.` @.o.o.C.Z.J.l.x.).~.d.t.u.u.u.s.t.~.j.w.J.B. . .X.7.%X~.*X'.(.(._.x.z.x.~.~.a.d.t.d.t.H.H.",
"> 1 * uXoX'.).*Xj.a.a.J.J.{.;X;X:XB.O.+.o. . .8.5.a.j.$Xk.u.u.u.u.u.s.H.P.P.8.B. .| | X.8.;X=X).).).).-X$Xy.y.a.a.t.d.t.d.P.W.R.",
"% @ [. X'._._.h.a.H.D.R T B.;.8.` C.| o. . .X.T 9.H.a.a.a.u.t.p.p.U.7.8.T T O.O. .| +. .b.W.J./.a.j.j.a.y.d.H.H.d.t.y.y.a.J.+ @ ",
"Y W.J.>X).).~.j.I.B.X.T X. .V.C.# T.+.| | ..+.E.G.U.P.P.H.a.p.Y.Z.C. .X...| +.|  .| I # + wXW.p.s.u.d.t.i.a.I.I.p.y.y.6.k.}.* = ",
"q.J.a.a.h.~.&XJ.5 L  ...o.o. .O.@ m.+.R ..| | ..R 9.5 8.0.p.s.8.q 7 O.........E.E.X.` ( % - y K.p.u.u.s.i.a.5 J a.i.@X@X~.XX8X= "
};
