/* XPM */
static char *result[] = {
/* columns rows colors chars-per-pixel */
"64 64 194 2 ",
"   c #161C2E",
".  c #191E2F",
"X  c #1D2131",
"o  c #212633",
"O  c #242F3D",
"+  c #322E37",
"@  c #2C3535",
"#  c #263239",
"$  c #29313C",
"%  c #2E3D3B",
"&  c #323B37",
"*  c #3C3638",
"=  c #363938",
"-  c #443E37",
";  c #364337",
":  c #3E443B",
">  c #46433E",
",  c #414E3C",
"<  c #4B5133",
"1  c #43513C",
"2  c #49573E",
"3  c #726C3E",
"4  c #2E3A44",
"5  c #2A3C4A",
"6  c #323C44",
"7  c #413E41",
"8  c #4E3F40",
"9  c #344545",
"0  c #33434B",
"q  c #3C474B",
"w  c #3D5144",
"e  c #334653",
"r  c #3C4E53",
"t  c #385058",
"y  c #3E5C65",
"u  c #474B48",
"i  c #594842",
"p  c #54574A",
"a  c #445353",
"s  c #41565A",
"d  c #46595C",
"f  c #545955",
"g  c #654F41",
"h  c #6C5948",
"j  c #6E5C51",
"k  c #46614A",
"l  c #566A42",
"z  c #586944",
"x  c #4D6B5E",
"c  c #536E5D",
"v  c #597B54",
"b  c #577358",
"n  c #666747",
"m  c #6A6C48",
"M  c #726041",
"N  c #78684F",
"B  c #647A47",
"V  c #7C6151",
"C  c #667858",
"Z  c #787E52",
"A  c #476367",
"S  c #4B6161",
"D  c #47666F",
"F  c #5A6764",
"G  c #506A69",
"H  c #5B7E6A",
"J  c #506D71",
"K  c #516F79",
"L  c #4C7074",
"P  c #557776",
"I  c #56797E",
"U  c #636D66",
"Y  c #67776A",
"T  c #797567",
"R  c #86644B",
"E  c #917A4A",
"W  c #876453",
"Q  c #916B53",
"!  c #817555",
"~  c #9D7354",
"^  c #9E785D",
"/  c #A87B54",
"(  c #8A7460",
")  c #5E8357",
"_  c #66834D",
"`  c #6F8749",
"'  c #78894C",
"]  c #76914B",
"[  c #78944C",
"{  c #668A5C",
"}  c #798254",
"|  c #67905D",
" . c #70935C",
".. c #719A62",
"X. c #668F75",
"o. c #6C8C73",
"O. c #77A666",
"+. c #7CA863",
"@. c #808639",
"#. c #B4BB3E",
"$. c #978E4B",
"%. c #888951",
"&. c #898B58",
"*. c #829F51",
"=. c #8E9759",
"-. c #959555",
";. c #989C5B",
":. c #A0834A",
">. c #A49946",
",. c #AA8C57",
"<. c #A6805B",
"1. c #B48355",
"2. c #B2875B",
"3. c #BD8F5C",
"4. c #B19657",
"5. c #8BAC55",
"6. c #8FAB5B",
"7. c #96B657",
"8. c #97B856",
"9. c #A2A15A",
"0. c #AFAD5D",
"q. c #B4AC55",
"w. c #A4B85B",
"e. c #ABB95D",
"r. c #B3BA5C",
"t. c #90816D",
"y. c #889968",
"u. c #999C63",
"i. c #828A7D",
"p. c #94837A",
"a. c #B08C61",
"s. c #BB9462",
"d. c #8CA76C",
"f. c #9EB164",
"g. c #A9A161",
"h. c #B5BA60",
"j. c #BCBA62",
"k. c #CEBA4C",
"l. c #CEA554",
"z. c #C3B451",
"x. c #D5B850",
"c. c #C79C62",
"v. c #CBAF74",
"b. c #DAB776",
"n. c #D0CD48",
"m. c #DBCA4C",
"M. c #D0D252",
"N. c #E2DD48",
"B. c #E1D25A",
"V. c #E9F044",
"C. c #DCD679",
"Z. c #D2E564",
"A. c #E8E177",
"S. c #EEF473",
"D. c #527D81",
"F. c #5C8383",
"G. c #5D858A",
"H. c #618F86",
"J. c #648D8D",
"K. c #789489",
"L. c #609090",
"P. c #6E9696",
"I. c #669D9D",
"U. c #6D999D",
"Y. c #799C91",
"T. c #6FA6A7",
"R. c #73A3A3",
"E. c #7DADAD",
"W. c #79B0B0",
"Q. c #909996",
"!. c #AD9887",
"~. c #90A48F",
"^. c #95B19C",
"/. c #A1AD93",
"(. c #87A5A6",
"). c #80ADA3",
"_. c #8CB5AB",
"`. c #91B1A8",
"'. c #9BBDA9",
"]. c #82B9BA",
"[. c #CEBBAE",
"{. c #BBCC8E",
"}. c #93C0B6",
"|. c #B3C9AA",
" X c #AED0BC",
".X c #B8D3B8",
"XX c #D0DEB5",
"oX c #E1D9A8",
"OX c #EDE5A5",
"+X c #F4F7A1",
"@X c #8CC3C4",
"#X c #9DCAC0",
"$X c #F9FBD0",
"%X c white",
/* pixels */
"%.j.j.j.j.j.j.j.; o X & 8.8.8.8.% & o X X & 8.8.8.& @ o 9 +.O.O.O.O.{ X = m j.j.j.j.j.j.j.j.Z * X X Q.Q.X X j.j.j.j.j.j.j.j.j.X ",
"%.j.j.j.j.j.j.j.j.> @ 8.8.8.8.8.8.8.@ X X 8.8.8.8.8.O.o 9 O.O.O.O.O.X X j.j.j.j.j.j.j.j.j.j.j.j.X X X X X X j.j.j.j.j.j.j.j.j.X ",
"X X j.j.j.j.j.v.j., @ 8.8.8.8.8.8.8.@ X X 8.8.8.8.7.O.) k k k k z m X m -.j.j.z.j.j.j.j.j.j.j.j.j.X X 7 j.j.z.j.j.j.j.j.j.j.j.X ",
"X X X j.j.e.8.8.8.8.7.8.8.8.8.8.8.8.@ X . 8.z z l ;     . 0 A F.G G s 0     q m n m j.h.j.j.j.j.j.X X - j.j.j.j.j.j.j.j.j.j.j.X ",
"X X X n e.7.8.8.8.8.8.8.8.8.8.8.8.8.B ; . L e 0 D.I.I.I.F.P I.I.I.I.I.L.F.G P A 4.>.K   m j.j.j.n X X : j.j.j.j.j.j.j.j.g.n n X ",
"X X X X 8.7.8.8.8.8.8.8.8.8.8.8.8.l   e I.@X  T.W.@X].T.I.L.F.I.I.I.I.I.I.P I.L./ {.@XK e   m j.X X o = j.j.j.j.j.j.j.j.&.X X X ",
"p X X X 8.8.8.8.8.8.8.8.8.8.8.8.; O I.W.@X].I.T.T.I.I.I.I.I.I.I.I.I.I.T.T.I.I.W.O D.].@XT.I.O   X X 9.h.7.8.j.j.j.j.X X X X X X ",
"r.z.j.X 8.8.8.8.8.8.8.8.] l l ; $ G I.W.@XW.I.i.Y.W.W.W.R.P.G W.W.].@X@XI.T.].U.].I.W.@XW.I.A 4 : z z ] 7.8.8.8.7.j.X X 1 7.7.j.",
"j.j.j.0.j.e.8.8.8.8.8.]     5   0 G I.T.@X].i.v.4.@X@X@XW.I.P E.@X@X@X@X@X@X@X  G I.].@XT.I.G 0   5     ] 8.8.7.8.8.5.5.7.8.8.j.",
"j.j.j.e.h.e.8.8.8.] l   I I.F.  s G F.I..X.X{.$Xm.L I.I.I.I.I.F.F.].@X@XE.].D 6 E.@X#X.XU.D.G d   F.I.I   l ] 7.8.8.8.8.8.8.8.j.",
"j.j.j.8.8.8.8.8.] 5 5   I.I.G   s s G L.I.I.I.;.- I J.I.I.I.I.I.I.I.I.F.G @XD G L.I.I.I.L.G s d   G I.I.  5 5 ] 8.8.8.8.8.8.8.j.",
"8.8.8.8.8.8.7.O.% I.I.s L.t./ 6 G y D L.I.I.F.G G D.W.W.I.I.T.W.W.W.I.T.].@XR.U ( ^ K.I.L.A   G 4 P I.L.s I.I.; 8.8.8.8.8.8.8.8.",
"8.8.X X O.O.O.; . U.I.d F.oXS.&.H.(.@XT.W.D.G G d G ).W.].].P.P.s s G P.@XW.I.i n.V.oXK.W.@X@XY.G L.I.F.S I.I.  ; 8.X . , 7.8.8.",
"p 1 . v O.O.% 0 4 D.I.a d Z.{.* P R.@X@X@XK 4 0 0 G U.].@X@X@XE.~.  F.W.I.I.y 3 x.%X$XQ.@X@X@XD.S I.I.d a I.F.O 0 & ` ` B 2 2 2 ",
"X X X O.O.k O G y a S u q q + 6 G D.#X#X@X@X@X  0 G I.I.I.W.W.'.'.K.G.I.I.I.L.> l.N.V.X.@X@XJ.G 0 9 q q q d a S G O z 8.' X . . ",
"X X O.O.v   s G G 4 6 f j p   F D.I.I.'.).T.K   G G I.I.I.I.I.I.I.F.t I.I.I.I.s   ! Y E.W.I.I.D.G   q q q q 6 G G s   ] 8.8.. o ",
"8.8.] % . 6 d G 4 D.K !.S.< 0 G F.I.I.I.I.G.K K J P F.I.I.I.I.I.I.F.0 L.I.I.L O K K 0 I.I.I.I.G.G t $ X K K G.O G d 6   ; 7.O.X ",
"8.8.; 0 G d $   U.@XU.S.OXM u T F I.I.D.G.@X@X@X@XP.G G F.I.I.I.L.G 0 P I.W.W.@X@X@X@XG.I I.I.A G G y T.@X@X@XG.  $ d G 0 % O.X ",
"8.[ 9 G G d   s E.@XU...R . 4.v.4.V   0 P T.@X@X@X@X@X@XJ 0 F.F.P G   A ].@X@X X X|.'.F.0       y D.T.@X@X@X@XR.s   4 G G 6 { w ",
"8.q d G G   s G L.@X@X@X@X#.%XS.V.^ 0 G G T.T.}. X X X X X0 s G G O   4 d G ).'.I.T.I.F.G t A P I.@X@X@X@X@X@XJ.G s   G G d q O.",
"z q G G $ 0 G G I.I.W.}./.V.S.OXC.h 0 G G L.I.I.I.).'.'.K.O K J.K I.@X@X@XI G L.I.I.I.F.G U ^ ^ ! Q.@X@XW.I.I.I.G G 5 O 0 G q k ",
"  $ X 6   0 G G F.I.I.I.X.M.q.x.l.> t G P F.L.I.I.I.I.I.G $ I @X@X@X@X#X XP.0 J.I.I.o.F.s < V.V.$Xy.I.I.I.I.I.L.G G 5   4.>.$   ",
"$ t q   O O 0 G F.I.I.I.I.I.  ! 4 O 0 G F.I.I.I.I.I.I.I.G   G F.I.W._.).I.G.0 I.I.a z.!.0 >.V.+X$XV.D.I.I.I.I.G.G 0 4 O :.{.s $ ",
"G G d o G G T.W.L.O y L.I.I.y G G O e t I.I.I.I.I.I.I.I.G 0 G I.I.I.I.I.I.y 0 G.t M A.C.  :.l.m.V.V.5 I.L.y O L.W.T.G G   r G G ",
"G G G O G G @X@X@X@XK K @XJ.J t O     K D D.I.I.I.I.G.U 4.4.U I.I.I.I.I.I 5 K @X@Xe u.~.L   M :.z.0 P.@XK K @X@X@X@XG G o G G G ",
"( z.^ u G J.@X@X@X@X@X@X@X@X@XX.G   L.@X@XE.P L.I.I.I.= x.$Xu D.s P.@X@X@X@X@X@X@XW.W.@X@XL.. G F.@X@X@X@X@X@X@X@X@XJ.G 4 d G G ",
"[.S.k.j L.W.@X@X@X@X@X@X@X@X@XP.s O G J.@X@X@X@XE.R.P.G.K.;.s G   G D.W._.'.'.I.I.I.I.W.L.G O t P.@X@X@X@X@X@X@X@X@XW.L.5 6 G s ",
"V.m.l.  I.I.T.W.W.@X X X X XG P G   G G J.].#X X X X X#XW.E.T.G   G J.U.I.I.I.I.I.I.I.F.G G   G P G  X X X X X'.'.).I.I.G   O 4 ",
"  M : 5 I.I.I.I.T.W.'.'.E.G.G G G   G G F.I.I.'.'.'.'.'.I.I.I.G 0 G P D.I.I.I.I.I.I.L.K G G   G G G L.).'.'.'.).I.I.I.I.y     $ ",
"  P F.t I.I.I.I.I.I.I.I.I.F.G G G   0 G G.F.I.I.I.I.I.I.I.I.L f - a G J.I.I.I.I.I.I.I.I.G G   G G G F.I.I.I.I.a z.t.I.I.t G.P o ",
"0 P I.G.K T.I.I.I.I.I.I.I.I.G G O   g i y D.I.K.I.I.I.K.Y f g 3./ / = a Y y y I.X.y y 5 * ! . O G G I.I.I.I.y 3 $XoXT.K G.I.P 0 ",
"G G P J.@X@X@XW.W.I.I.I.I.I.s .   g / c.3.c.h g 1.c.c.3.N N b.b.b.v.N N c.3.1.1.j h c.c.s.c.h     s I.K.t.^ W - m.#.K @XL.P G ( ",
"G G G K P.@X@X@X@X@XE.I.U.K G G 0   Q a./ N 7 8 ,.<.c.<.> > a.2./ N - u 2.a./ N > > ^ 2.2.N   0 G G A ^ m.S.oX< K @X@XP.G G 0 ~ ",
"G G U ( ^ ^ o.R.W.E.I.P d G G G G . 1.~ 2.1.g g 2.~ 2.1.g i 1.1.~ 1.g g 2.1.1.2.g i 1.1.~ 1.  G G G 0 V A.$X$XV.U.H.G G G G G 0 ",
"@XP.u.$XV.V.< J I.i.I.G.O G G G 0   1.1.1.~ g g s.1.1./ g g 1.1./ 1.g g / 1.~ 1.g - 1.1./ 1.  0 G G 0 3 l.m.V.V.0 G G G D X.P.@X",
"@XU.V.$X+XV.>.  p.z.a F.  s d .     R ~ k.E * * ~ N.V.>.< * 1.~ V.V.+ * V.V.>.R * < 4.4.1.Q       s 6   M l.< {   0 0 P.P.@X@X@X",
"@Xe V.V.m.l.:.O C.A.M 0 U.@X@XD.G                       < <         < <                       G D.@X@X@X@X@X@XE.0 0 @X@X@X#X#X@X",
"U.G.y M.l.M   0 C %.e @X#X Xo.G G 0 + >   8 8 +   #.V.V.V.V.V.V.V.V.V.V.V.V.#.  + 8 8   8 + 0 G J o.XX X X@X@XE.0 0 F.T.'.'.`.(.",
"I.I.I.I.D.G 0 G F.F.T._.'.I.I.P G 0 i W 8 W W W   V.V.V.V.+X+X+XS.S.+X+XV.V.V.  W + W 8 W 8 0 G P I.I.).'.T.L.G.s s G I.I.I.I.I.",
"I.I.I.I.I.T = 0 I.I.I.I.I.I.I.L.G 0   W h ~ ~ :.+ #.V.V.+X%X%X%X$X+XV.V.V.V.#.  :.i ~ Q Q + 0 G J.U.I.I.I.I.I.I.5 4 6 D.I.I.I.I.",
"I.I.I.G.T v.g.X L I.I.I.I.I.I.I.G G   ~ ~ 1.1.q.> @.V.V.+X%X%X%X$X+X+XV.V.V.@.- V.~ 1.~ ~   G G I.I.I.I.I.I.( 4.4.U e t G.I.I.I.",
"W.W.@X@X{.$Xm.  y I.I.I.I.I.I.L.G s   ~ ~ ~ / ,.@.@.V.V.+X+X+X+X+X+X+XV.V.V.@.3 V.3./ ~ ~   f ^ ( I.I.I.I.D.a.V.$X^ @X@X@X@XW.E.",
"@X@X@X@X@X{.> # t F.I.I.I.L.P G s     g / 1./ k.@.@.V.V.V.V.V.+X%X$X+XV.V.V.  @.M.c.<./ g   M S.oXD.L.I.I.y M l.V.@.@X@X@X@X@X@X",
"(.~._. X_.I.P J @X@X@X@X@X@XP.P y y   i 1.g 3.k.@.< V.V.V.V.V.V.V.V.V.V.V.V.  @.B.<.a.1.i   > b.Z.P.@X@X@XU.  3 K.t I._. X_.~.^.",
"I.J.D.I.I.I.L @X@X@X@X@X@X@X@X@X].I.y + 1.R b.k.q.  V.V.V.V.V.N.V.V.V.V.V.V.  $.B.h 3.1.+ y D.G._.@X@X@X@X@X@X@X@XP I.I.I.F.J.I.",
"I.I.I.I.I.G.Y. X@X@X@X@X@X@X@X@X@XD.    1.~ b.c.V.  V.V.N.m.N.N.V.N.m.m.V.V.  n.c.~ 1.1.    D.@X@X@X@X@X@X@X@X@X XY.L.I.I.I.I.I.",
"I.I.I.I.A s G |..X X X_.P.P.P.J.G.G G O g / l.1.V.. V.m.m.m.m.l.l.l.x.V.V.#.  V.1./ 1.g O G G F.J.P.P.P.`. X X.X|.S s A I.I.I.I.",
"J.I.I.I.5 O D X.I.I.I.I.I.I.I.I.I.P G 0 g 1.3./ k.. V.m.m.m.m.l.l.l.N.V.V.@.  k.1.1.1.g 0 G P I.I.I.I.I.I.I.I.I.G.G $ 5 I.I.I.H.",
"` ` l 1 1 & r F.I.I.I.I.I.I.I.F.y L s G g / 1.~ 1.  V.m.V.V.l.l.l.m.l.l.m.@.  1.~ / 1.  G O 5 F.D.I.I.I.I.I.I.I.G.s   @ 1 l ` ` ",
"` ` ` ` ` ` 1 0 I.I.I.I.I.I.I.  0 O 9 s   ~ / ~ / * V.V.V.m.l.l.l.l.l.m.m.@.* 1.~ ~ 1.  O l w # O y I.I.I.I.I.I.5   & ` ` ` ` ` ",
"` ` ` ` ` ` ` ` : :  .X.x x c k C v c x   Q R R ~ g q.V.N.z.g.g.g.u.l.l.l.  g g V Q 1.  m ' z z v _ ` | ..c 1 1 l ` ` ` B l l ` ",
"` [ [ ` ` ` ` ` ` ` ` x x x { %.%.%.c 0   O * - ~ g   3 j.j.j.j.y.X.X.7.7.[ = %.& h * m %.%.%.%.v b ` ` ` ` ` ` ` ` ` ` l X . ` ",
"[ [ X.x [ *.] x x x x x x %.%.%.%.%.%.m m x k s x ) j.j.j.j.j.j.j.j.j.X.7.e.0.&.%.%.%.%.%.%.%.%.&.` ` ` ` ` ` ` ` ` *.*.` &.X . ",
"8.8.X.X.X.X.H x x x x x x %.%.%.%.%.%.%.%.%.%.C G h.j.j.j.j.j.j.j.j.j.j.j.j.j.-.%.%.%.%.%.%.%.%.%.` ` ` ' ` ` ` ` %.j.j.r.z.j.j.",
"z , X.X.X.X.X.X.} } Z G G C y.%.%.%.%.%.%.%.%.} =.j.j.j.j.j.j.j.j.j.j.j.j.j.j.j.0.%.%.%.%.%.%.%.%.-.;.' ` ` 8.` [ j.j.j.j.j.j.j.",
"2 o o.X.X.X.X.o.h.9.;.) o.X.y.-.%.%.%.%.%.%.%.-.h.j.j.j.j.j.j.j.j.j.j.j.j.j.j.z.r.-.%.%.%.%.%.%.%.0.r.j.*.8.8.5.7.j.j.h.j.h.j.j.",
"u X j.X.X.X.X.j.j.j.j.j.j.X.d.j.j.j.-.%.%.%.&.0.j.j.j.j.j.j.j.j.j.j.j.j.j.j.j.j.j.0.%.%.%.%.-.j.j.j.j.h.8.8.8.8.8.8.8.8.8.8.8.8.",
"X X X j.j.j.j.j.j.j.j.j.j.j.j.j.j.j.-.%.%.%.9.j.j.j.j.j.j.j.8.8.7.7.8.j.j.j.j.j.r.d.) v %.%.-.j.j.j.j.j.j.j.j.w.8.8.8.8.8.8.8.8.",
"X X X X X z j.j.j.j.j.j.j.j.j.j.j.j. .) v v O.f.j.j.j.j.e.8.8.8.7.8.8.8.j.j.j.j.O.O...v v 9.j.j.j.j.j.j.j.j.j.j.j.8.8.8.8.8.8.8.",
"X X X n n %.j.j.e.e.e.e.e.j.j.j.0.` ..v v ..O.6.f.e.e.j.r.8.8.8.7.7.8.8.e.e.f.f.O.O.O.| v 0.0.0.j.j.j.j.j.e.e.e.e.8.8.8.8.8.8.8.",
"X X X j.j.j.j.j.8.8.8.8.7.j.j.j.=.| | v { O.O.O.O.8.8.j.r.8.8.8.8.8.7.7.7.6.O.O.O.O.O.O.v -.9.%.j.j.j.j.j.8.8.8.8.8.8.8.8.8.8.8.",
"X X 8.j.j.j.j.f.8.8.7.O.O.O.O...) O.) v ..O.O.O.O.8.8.8.8.8.8.8.8.8.O.O.O.O.O.O.O.O.O.O...` *.[ [ 8.8.8.8.8.8.8.8.8.8.8.8.8.X X ",
"` 8.8.j.z.j.j.8.8.+.O.O.O.O.O.| X O.| O.O.O.O.6.8.8.8.8.8.8.8.8.+.O.O.O.O.O.O.O.O.O. .. X 5.5.5.` 8.8.8.8.8.8.7.8.8.8.8.w.j.X X ",
"5.8.8.8.8.e.j.8.& { O.O.O.O.O.O.X O.O.O.O.O.O.O.+.+.& +.+.8.8.+.k 9 O.O.O.O.O.7.7.+.O. .X & B 8.8.8.8.8.8.8.& ` 8.8.h.h.h.j.9.X "
};
