/* XPM */
static char *result[] = {
/* columns rows colors chars-per-pixel */
"64 64 250 2 ",
"   c #161C2E",
".  c #1D2131",
"X  c #1E2231",
"o  c #1E2332",
"O  c #1F2332",
"+  c #1F2432",
"@  c #202532",
"#  c #212733",
"$  c #232733",
"%  c #2A3235",
"&  c #2E3636",
"*  c #2C383A",
"=  c #2E3A3B",
"-  c #2E3F3B",
";  c #29393F",
":  c #2B3A3F",
">  c #323B37",
",  c #3B3338",
"<  c #383B39",
"1  c #443E37",
"2  c #364337",
"3  c #35443F",
"4  c #3D403B",
"5  c #3F443A",
"6  c #3E4A3C",
"7  c #42453C",
"8  c #414E3C",
"9  c #4B5133",
"0  c #45533D",
"q  c #48563E",
"w  c #49573E",
"e  c #79733D",
"r  c #384841",
"t  c #3D5144",
"y  c #475D48",
"u  c #515341",
"i  c #5B5D44",
"p  c #614B43",
"a  c #695642",
"s  c #46614A",
"d  c #526341",
"f  c #546542",
"g  c #526744",
"h  c #566A42",
"j  c #5B6D44",
"k  c #5C6F44",
"l  c #577653",
"z  c #5C7F56",
"x  c #656647",
"c  c #606848",
"v  c #696B48",
"b  c #6C6D49",
"n  c #726041",
"m  c #617545",
"M  c #617546",
"N  c #667447",
"B  c #637846",
"V  c #6F704A",
"C  c #677D48",
"Z  c #697F48",
"A  c #7C7D4E",
"S  c #505562",
"D  c #517263",
"F  c #86624D",
"G  c #97784B",
"H  c #AC7A58",
"J  c #5E8357",
"K  c #6B8249",
"L  c #6C8349",
"P  c #6F864A",
"I  c #738B4B",
"U  c #76914B",
"Y  c #77904C",
"T  c #7A944D",
"R  c #7E994E",
"E  c #678D5B",
"W  c #688F5D",
"Q  c #6D9760",
"!  c #709C62",
"~  c #769C6B",
"^  c #739A6D",
"/  c #759B6C",
"(  c #668F75",
")  c #679075",
"_  c #6A9372",
"`  c #6A9273",
"'  c #6F9473",
"]  c #6A9174",
"[  c #6D9274",
"{  c #709473",
"}  c #729572",
"|  c #759672",
" . c #7D9A70",
".. c #75A365",
"X. c #76A465",
"o. c #77A666",
"O. c #79A461",
"+. c #7CA167",
"@. c #78A765",
"#. c #78A666",
"$. c #7FA465",
"%. c #7CA963",
"&. c #7DA963",
"*. c #7DAA63",
"=. c #7EAA62",
"-. c #7AA864",
";. c #7BA864",
":. c #7BA964",
">. c #7CA964",
",. c #7CA866",
"<. c #7FA866",
"1. c #808639",
"2. c #B4BB3E",
"3. c #878752",
"4. c #848F55",
"5. c #888852",
"6. c #8D8D53",
"7. c #829E50",
"8. c #929254",
"9. c #A0834A",
"0. c #A79546",
"q. c #B48557",
"w. c #BD8F56",
"e. c #BB9753",
"r. c #8AA852",
"t. c #8DAC53",
"y. c #8DAC54",
"u. c #87AB58",
"i. c #84AE5F",
"p. c #85AE5F",
"a. c #86AF5E",
"s. c #87AF5E",
"d. c #8CB25B",
"f. c #8DB35B",
"g. c #8EB35A",
"h. c #88B05D",
"j. c #89B05D",
"k. c #8AB15C",
"l. c #8BB25C",
"z. c #8BB05E",
"x. c #8EB15C",
"c. c #90B054",
"v. c #95B655",
"b. c #95B657",
"n. c #95B757",
"m. c #96B756",
"M. c #96B856",
"N. c #97B856",
"B. c #99B857",
"V. c #9AB857",
"C. c #9BB857",
"Z. c #90B459",
"A. c #91B559",
"S. c #92B558",
"D. c #93B558",
"F. c #92B459",
"G. c #93B658",
"H. c #94B658",
"J. c #97B35D",
"K. c #9AB35F",
"L. c #9CB858",
"P. c #9DB858",
"I. c #ADA842",
"U. c #A1A05A",
"Y. c #A2A15A",
"T. c #A6A45B",
"R. c #B0AE5E",
"E. c #A3B35A",
"W. c #A6B65F",
"Q. c #A0B859",
"!. c #A1B959",
"~. c #A2B959",
"^. c #A2B95A",
"/. c #A3B95A",
"(. c #A4B95A",
"). c #A5B95B",
"_. c #A7B95B",
"`. c #A8B95B",
"'. c #A9B95C",
"]. c #AAB95C",
"[. c #ABB95D",
"{. c #ACB95D",
"}. c #ADB95D",
"|. c #AEB95D",
" X c #AEB95E",
".X c #AFB95E",
"XX c #B1B95E",
"oX c #B2B95F",
"OX c #858A68",
"+X c #819C6F",
"@X c #829D6F",
"#X c #839E6E",
"$X c #859E6E",
"%X c #80AB61",
"&X c #80AB62",
"*X c #85A961",
"=X c #87AB60",
"-X c #84A862",
";X c #81AC61",
":X c #82AC60",
">X c #83AD60",
",X c #81A965",
"<X c #83A965",
"1X c #87AB65",
"2X c #8DAC65",
"3X c #8AA16D",
"4X c #8EA36C",
"5X c #90AD65",
"6X c #96AF64",
"7X c #90A46C",
"8X c #9BAA69",
"9X c #9EAB69",
"0X c #9DB164",
"qX c #9FB264",
"wX c #A5AF67",
"eX c #A5B363",
"rX c #AAB563",
"tX c #AEB663",
"yX c #AFB365",
"uX c #B3B664",
"iX c #B4BA60",
"pX c #B6BA60",
"aX c #B7BA60",
"sX c #B4B862",
"dX c #BAB861",
"fX c #B8BA61",
"gX c #B9BA61",
"hX c #BABA61",
"jX c #B9B962",
"kX c #B8B863",
"lX c #BBBA62",
"zX c #BCBA62",
"xX c #C59A55",
"cX c #CAB54E",
"vX c #CEA554",
"bX c #D5B850",
"nX c #DBCA4C",
"mX c #DAD249",
"MX c #E2DD48",
"NX c #E9F044",
"BX c #EEF473",
"VX c #8A8D96",
"CX c #909297",
"ZX c #9A9B9F",
"AX c #C19B82",
"SX c #D5BCAB",
"DX c #BFC29C",
"FX c #F4F7A1",
"GX c #C5C6CB",
"HX c white",
/* pixels */
"5.zXzXzXzXzXzXzX< $ + > N.N.N.N.> > @ . . > N.N.N.> * X r o.o.o.o.o.W . < b zXzXzXzXzXzXzXzXA < . . ZXCX. . zXzXzXzXzXzXzXzXzX. ",
"5.zXzXzXzXzXzXzXzX7 % N.N.N.N.N.N.N.& . . N.N.N.N.N.o.# r o.o.o.o.X.. . zXzXzXzXzXzXzXzXzXzXzXzX. . . . . . zXzXzXzXzXzXzXzXzX. ",
". O zXzXzXzXzXzXzX7 % N.N.N.N.N.N.N.& . . N.N.N.N.N.o.o.o.o.o.o.eXdX. zXzXzXzXzXzXzXzXzXzXzXzXzXzX. . 4 zXzXzXzXzXzXzXzXzXzXzX. ",
". . . zXzX|.N.N.N.N.N.N.N.N.N.N.N.N.& . . N.N.N.N.N.zXzXzXzXzXzXzXzXzXzXzXzXzXzXzXzXzXzXzXzXzXzXzX. . 4 zXzXzXzXzXzXzXzXzXzXzX. ",
". . . x `.!.N.N.N.N.N.N.N.N.N.N.N.N.C d . f N.N.N.[.zX'.`.`.zXzXzXzXzXzXzXzXzXzXzXzXzXzXzXzXzXzXx . . 4 zXzXzXzXzXzXzXzXY.x x . ",
". . . . N.N.N.N.N.N.N.N.N.N.N.N.N.N.N.R . . N.N.N.zXzXB.N.N.zXzXzXzXzXzXzXzXzXzXzXzXzXzXzXzXzXzX. . . 4 zXzXzXzXzXzXzXzX6.. . . ",
"u . . . N.N.N.N.N.N.N.N.N.N.N.N.N.N.N.N.N.N.N.N.N.zXN.N.N.N.N.zXzXzXzXzXzXzXzXzXzXQ.N.N.N.zXV . . . T.iXN.N.zXzXzXzX. . . . . . ",
"zXzXzX. N.N.N.N.N.N.N.N.N.N.N.N.N.N.N.N.N.N.N.N.N.N.N.N.N.N.N.N.N.N.N.N.zXzXzXzXN.N.N.N.N.N.k . zXN.N.N.N.N.N.N.N.zX. . 8 N.N.zX",
"zXzXzXR.gX{.N.N.N.N.N.N.N.N.N.N.N.N.N.N.N.N.N.N.N.N.N.N.N.N.N.N.N.N.N.N.V._.zXzXN.N.N.N.N.N.E.R.V.N.N.N.N.N.N.N.N.V.t.t.c.N.N.zX",
"zXzXzXoXoX`.N.N.N.N.N.N.N.N.N.N.N.N.N.N.N.N.N.N.N.N.N.N.N.N.N.N.N.N.N.N.N.~.oXoXN.N.N.N.N.N.'.zXN.N.N.N.N.N.N.N.N.N.N.N.N.N.N.zX",
"zXzXzXN.N.N.N.N.N.N.N.N.N.N.N.N.N.N.N.N.N.N.N.N.N.N.N.N.N.N.N.N.N.N.N.N.N.N.N.N.N.N.N.N.N.N.'.zXN.N.N.N.N.N.N.N.N.N.N.N.N.N.N.zX",
"N.N.N.N.N.N.N.o.o.o.o.o.o.o.a.N.N.N.N.N.N.N.N.N.N.N.N.N.N.N.N.N.N.N.N.N.N.N.N.N.N.N.N.N.N.N.N.N.N.N.N.N.N.N.N.N.N.N.N.N.N.N.N.N.",
"N.v.. . o.o.o.o.o.o.o.o.o.o.o.o.N.o.o.o.o.o.N.N.N.N.N.N.N.N.zXzXzXlXN.N.N.N.N.N.N.N.N.N.N.N.N.N.N.N.N.N.N.N.N.N.N.N.. . 8 N.N.N.",
"w q . l o.o.o.o.o.o.o.o.o.o.o.o.:Xo.o.o.o.o.:Xg.N.N.N.|..X.XzXzXzXzX.XN.N.N.N.N.N.N.N.N.N.N.N.N.:X:X:Xs.N.N.N.N.N.N.K K M w w w ",
". . . o.o.o.o.o.o.o.o.o.o.o.o.o.o.o.o.o.o.o.o.j.N.N.N.hXzXzXzXzXzXzXzXN.N.N.N.N.N.N.N.N.N.N.N.N.o.o.o.*.N.N.N.N.N.N.N.N.I . . . ",
". o o.o.o.o.o.o.o.o.o.o.o.o.o.o.o.o.o.o.o.o.o.qXzXzXzXzXzXzXzXzXzXzXzXzXzXzXzXzXo.o.o.o.N.N.s.o.o.o.o.o.o.N.N.N.N.N.N.N.N.N.. . ",
"N.N.N.o.o.>XN.N.N.N.N.N.o.o.o.o.o.o.o.o.o.o.o.o.o.o.o.jXzXzXzXzXzXzXzXzXzXzXzXo.o.o.o.o.o.o.o.o.N.N.:.o.o.o.N.N.N.N.N.N.N.N.o.. ",
"N.N.N.N.N.N.N.N.N.N.N.N.N.o.o.o.o.N.N.N.N.o.o.o.o.o.o.o.o.o.zXzXzXlXo.o.o.o.o.o.N.N.G.o.o.o.a.N.N.N.N.Z.o.o.o.j.N.N.N.N.f.o.o.. ",
"N.N.N.N.N.N.N.N.N.N.N.N.N.o.o.o.:XN.N.N.N.:X:X:X:X:X:X:X:X:X.X.X.X X:X:X:X:X:X:XN.N.n.:X:X:Xd.N.N.N.N.G.:X:X:Xg.N.N.N.d.p.o.o.t ",
"N.N.N.N.N.N.N.N.N.N.N.N.N.o.o.o.N.N.N.N.N.N.N.N.N.N.N.N.N.N.N.N.N.N.N.N.h h U N.N.N.N.N.N.N.N.N.N.N.N.N.N.N.N.N.N.N.N.@.o.o.o.o.",
"N.N.N.N.N.N.N.N.N.N.N.N.N.N.N.N.N.N.N.N.N.N.N.N.N.N.N.N.N.N.N.N.N.N.N.N.  9   2 o.o.-.N.N.N.N.N.N.o.o.o.o.o.N.N.N.N.N.@.o.o.o.o.",
"N.N.N.N.N.N.N.N.N.N.N.N.N.N.N.N.N.N.N.N.N.( ( ( ( ( ( ( / N.N.N.~ ( ( (   NXNX1.- o.o.o.N.o.o.o.o.o.o.o.o.o.o.j.N.N.o.o.o.o.o.o.",
"T M.^ ^ ^ ^ ^ ^ N.N.D.^ ^ ^ -XN.N.N. XoXoXwXwX+X( ( ( ( ` ^ N.^ _ ( D     nXbXNX0.- o.o.&Xo.o.o.o.o.o.o.o.o.o.>.&X&Xo.o.o.o.3 3 ",
"Z y.( ( ( ( ( ( D.D.x.( ( ( +.D.N.V.aXzXzXzXzX4X[ [ ( ( ( ( D.( ( ( : S VX1 I.bXvX1 s o.o.o.o.o.o.o.o.o.o.o.o.o.o.o.o.o...! . . ",
". o ( ( ( ( ( ( ( ( ( ( ( ( ( ( N.zXzXzXzXzXzXzXzXzX( ( ( D ;         S HXGX  n   - J o.o.o.o.o.o.o.o.o.o.o.o.o.o.o.o.o.z . . . ",
"u . . . zXzXzX( ( ( ' zXzX( ( ( zXzXzXzXzXzXzXzXzXzXzX] ;   9 2.FXFX2.9 S DX2.  v zXsXo.o.o.a.N.N.o.o.*.N.N.N.i.o.o.o.o.%XN.N.N.",
"zXzXzXzXzXzXzXzXzXzXzXzXzXzXzXzXzXzXzXzXzXzXzXzXzXzXzX8.  9 NXFXHXHXHXNX0.  1.  v zXzXzXo.o.a.N.N.N.N.N.N.N.N.N.N.o.o.o.o.o.o.o.",
"zXzXzXzXzXzXzXzXzXzXzXzXzXzXzXzXzXzXzXzXzX0X0X0X0XzXzX5 9 2.NXFXHXSXHXNXnX1   5 zXzXzXzX6X6XJ.N.N.N.N.N.N.N.N.N.N.o.o.o.o.o.o.o.",
"zXzXzXzXzXzXzXzXzXzXzXzXzXzXzXzXzXzXzXzXzXo.o.o.s v     2.2.1.OXAXAXHXNXNXvXn 5 zXzXzXzXzXzX].N.N.N.N.N.N.N.N.N.N.o.o.o.o.o.o.o.",
"zXzXzXzXo.o.o.o.zXzXzXzXzXzXzXzXzXzXzXtXo.o.o.-   9 e q.9.  1 1 p H NXNXNXvXn   zXzXzXzXzXzXzXzXzXN.N.N.N.N.N.N.N.o.o.o.o.o.o.zX",
"zXlXo.o.o.o.o.o.o.o.<.zXzXo.o.o.o.o.o.o.o.o.- 9 FXFXMXbXn   9.nXNXcXmXNXMXvXvX  N.N.N.N.zXzXzXzXN.N.N.N.N.N.N.i.o.o.zXzXzXzXzX. ",
"P.P.A.A.A.A.A.o.o.o.#.<X<Xo.o.o.o.o.o.o.o.s 9 BXHXHXNXMXe     n 2.NXNXNXbXvXxX  N.N.N.N.P.P.P.P.N.N.N.N.N.N.N.H.A.A.P.P.P.P.P.7.",
"N.N.N.N.N.N.N.%.%.%.%.%.o.o.o.o.o.o.o.o.o.  1.FXHXFXcXe.NX9 9 1   vXnXnXvXq.H   N.G.A.A.A.A.A.A.A.N.N.N.N.N.N.N.N.N.N.N.N.N.N.N.",
"N.N.N.N.N.N.N.N.N.N.N.N.o.o.o.o.o.o.o.o.o.  bXNXNXNXmXH p   NX0.  vXq.H H H F   N.=.o.o.o.o.o.o.o.N.N.N.N.N.N.N.N.N.N.N.N.N.N.N.",
"P N.N.N.N.N.N.N.N.N.N.N.N.N.N.N.N.o.o.o.o.  vXNXNXNXNXcXH F p   9 NXbXq.H F   s o.o.o.o.o.o.o.o.o.N.N.N.N.N.N.N.N.N.N.N.N.N.N.N.",
". O N.N.N.N.N.N.N.N.N.N.o.o.o.o.o.o.o.o.o.  vXMXNXNXNXH e.cXcX1.2.NXnXw.H p   s o.o.o.o.zXzXzXzXo.N.N.N.N.N.N.N.N.N.N.N.N.N.N.N.",
"N m N.N.N.Z.p.p.p.p.p.p.o.o.o.o.o.o.o.;.h.2 9.vXMXNXNXcXNXNXNXNXNXNXnXw.H H p   h.h.z.0XzXzXzXzX0XN.N.N.N.N.N.N.N.N.N.N.N.N.N.f ",
"/.N.N.N.N.k.o.o.o.o.o.o.o.o.o.o.o.o.o.*.N.h 1 vXvXnXMXNXNXNXNXNXNXMXvXq.H H ,   N.N.C.zXzXzXzXzXzXN.N.N.N.N.N.N.N.N.N.N.N.N.N.. ",
"zXlXN.N.N.N.N.N.N.N.N.N.N.N.N.N.N.N.N.N.N.N.  9.vXvXvXvXnXnXnXnXbXvXxXH H F   v N.N.C.zXzXzXzXzXzXzXL.N.N.N.N.N.N.N.N.N.N.N.N.N.",
"zXzXzXN.N.N.N.N.N.N.N.N.N.N.N.N.N.N.N.N.N.N.U   G vXvXvXvXvXvXvXvXw.H H p     zXzXzXzXzXzXzXzXzXzXzXL.N.N.N.N.N.N.N.N.N.N.N.N.N.",
"V.V.V.N.N.N.N.N.N.N.N.N.N.N.N.N.N.N.N.N.N.N.N.U   , a G w.vXxXw.F p p     5 8.zXzXzXzXzX,.,.,.,.zXzXhXgXgXgXgX).N.N.N.N.N.N.N.N.",
"N.N.N.N.N.N.N.N.N.N.N.N.N.N.N.N.N.N.N.N.N.N.N.N.N.h h             g c 4.rXrXrXrXrXrXrXrXo.o.o.o.rXzXzXzXzXzXzX{.!.!.!.!.!.!.g.Y ",
"N.N.N.N.N.N.N.N.N.N.N.N.N.N.N.N.N.N.N.N.N.N.N.N.N.N.N.N.N.N.N.N.;Xo.o.o.o.o.o.o.o.o.o.o.o.o.o.o.o.zXzXzXzXzXzXzXzXzXzXzXzXzXo.. ",
". O N.N.N.N.N.N.N.N.N.N.N.N.N.N.N.N.N.N.N.N.N.N.N.N.N.N.N.N.N.o.o.o.o.o.o.>XN.N.o.o.o.o.o.o.o.o.o.o.o.o.o.o.o.o.o.o.o.o.o.o.o.o.",
"P N.N.N.N.N.N.N.N.N.N.N.N.N.N.N.N.N.N.N.N.N.N.N.N.N.N.@.o.o.o.o.o.o.o.N.N.N.N.N.N.=.o.o.o.o.o.o.o.o.o.o.o.o.o.o.o.o.o.o.o.o.o.o.",
"P N.N.N.N.N.N.N.N.N.N.N.N.N.N.N.N.N.N.N.N.N.N.N.N.N.N.d.l.l.l.l.l.l.l.N.N.N.N.N.N.g.l.l.l.o.o.o.o.o.o.o.o.o.o.o.o.o.o.o.o.o.o.o.",
"P N.N.N.N.N.N.N.N.N.N.N.N.N.N.N.N.N.N.N.N.N.N.N.N.N.N.N.N.N.N.N.N.N.N.N.N.N.N.N.N.N.N.N.N.o.o.o.o.o.o.o.o.o.o.o.o.o.o.o.o.o.o.o.",
"P N.N.N.N.N.N.N.N.N.N.N.N.N.N.N.N.N.N.N.N.N.N.N.N.N.N.N.N.N.N.N.N.N.N.N.N.N.N.N.N.N.N.N.N.N.s.o.o.o.S.N.N.N.N.i.o.o.o.o.o.o.o.N.",
"N.N.N.N.N.N.N.N.N.N.N.N.N.N.$.( ( ( ( ( ( N.N.N.N.N.( ( ( ( ( ( =XN.N.N.N.N.N.N.zXzXzXzXN.N.s.o.o.N.N.N.N.N.N.N.N.o.N.N.N.N.N.N.",
"N.N.N.N.N.N.N.N.N.N.N.N.( ( ( ( ( ( ( ( ( ( N.N.N.( ( ( ( ( ( ( ( ) N.N.N.N.N.zXzXzXzXzXzXN.s.o.o.N.N.N.N.N.N.N.N.N.N.N.N.N.N.N.",
"N.N.N.N.N.N.N.N.N.N.b.*X( ( | $X$X$X] ( ( ( *X*X*X( ( #X$X$X$X$X{ ( *XN.N.L.(.zXzXzXzXzXzX(.K.5Xo.l.n.N.N.N.N.N.N.N.N.N.r.K K N.",
"N.N.N.N.N.N.N.N.N.N.F.( ( ( 7XzXzXzX} ( ( ( ( ( ( ( ( kXzXzXzXzX@X( ( N.N.).zXzXzXzXzXzXzXzXzXzXo.o.S.N.N.N.N.N.N.N.N.N.I . . N.",
"N.m.( ( N.N.N.( ( ( ( ( ( zXzXzXzXzXzXzXzX( ( ( ( ( zXzXzXzXzXzXzXzXzX( N.).zXzXzXzXzXzXzXzXzXzXzXN.N.N.N.N.N.N.N.N.N.N.^.zX. . ",
"N.m.( ( ( ( ( ( ( ( ( ( ( zXzXzXzXzXzXzXzXzXzX3X( zXzXzXzXzXzXzXzXzXzXzXzXzXzXzXzXzXzXzXzXzXzXzXzXN.N.N.N.N.N.N.N.zXzXzXzXzXzXzX",
"j 6 ( ( ( ( ( ( wXwX9X( (  .8XzXzXzXzXzXzXzXzXyXwXzXzXzXzXzXzXzXzXzXzXzXzXzXzXzXzXzXzXzXzXzXzXzXzXoXoX}.N.N.N.N.N.zXzXzXzXzXzXzX",
"0 o [ ( ( ( ( [ zXzXuX[ [ ( 7XzXzXzXzXzXzXzXzXzXzXzXzXzXzXzXzXzXzXzXzXzXzXzXzXzXzXzXzXzXzXzXzXzXzXzXzXiXN.N.N.N.N.gXgXgXgXgXgXgX",
"0 O zX( ( ( ( zXzXzXzXzXzX( 7XzXzXzXzXzXzXzXzXzXzXzXzXzXzXzXzXzXzXzXzXzXzXzXzXzXzXzXzXzXzXzXzXzXzXzXzXiXN.N.N.N.N.N.N.N.N.N.N.N.",
". . . zXzXzXzXzXzXzXzXzXzXzXzXzXzXzXzXzXzXzXzXzXzXzXzXzXzXzXN.N.N.N.N.zXzXzXzXzXzX1Xo.o.zXzXzXzXzXzXzXzXzXzXzX_.N.N.N.N.N.N.N.N.",
". . . . . i zXzXzXzXzXzXzXzXzXzXzXzX,Xo.o.o.o.qXzXzXzXzXXXN.N.N.N.N.N.N.zXzXzXzXo.o.o.o.o.zXzXzXzXzXzXzXzXzXzXzXzXN.N.N.N.N.N.N.",
". . . x x 3.zXzX[.[.[.[.[.zXzXzXzX0X,.o.o.o.o.2X0X[.[.lXXXN.N.N.N.N.N.N.[.W.0X0Xo.o.o.o.o.zXzXzXzXzXzXzXzX[.[.[.[.N.N.N.N.N.N.N.",
". . . zXzXzXzXzXN.N.N.N.N.zXzXzXzXo.o.o.o.o.o.o.o.N.N.hXXXN.N.N.N.N.N.N.N.k.o.o.o.o.o.o.o.zXzXzXzXzXzXzXzXN.N.N.N.N.N.N.N.N.N.N.",
". O N.zXzXzXzXN.N.N.G.o.o.o.o.o.o.o.o.o.o.o.o.o.o.N.N.N.N.N.N.N.N.M.o.o.o.o.o.o.o.o.o.o.o.N.N.N.N.N.N.N.N.N.N.N.N.N.N.N.N.N.. . ",
"P N.N.zXzXzXzXN.N.=.o.o.o.o.o.o.. o.o.o.o.o.o.j.N.N.N.N.N.N.N.N.;Xo.o.o.o.o.o.o.o.o.Q . . N.N.N.N.N.N.N.N.N.N.N.N.N.N.N.^.zX. . ",
"u.N.N.P.P.'.zXN.> E o.o.o.o.o.o.. o.o.o.o.o.o.-.%.%.> O.i.N.N.%.y = o.o.o.o.o.A.A.&...W . > B N.N.N.N.N.N.N.> L N.N.pXpXfXzXU.. "
};
