/* XPM */
static char *result[] = {
/* columns rows colors chars-per-pixel */
"64 64 208 2 ",
"   c #1D2131",
".  c #1E2231",
"X  c #1E2332",
"o  c #1F2332",
"O  c #1F2432",
"+  c #202532",
"@  c #212733",
"#  c #232733",
"$  c #2A3235",
"%  c #2E3636",
"&  c #2C383A",
"*  c #2E3A3B",
"=  c #323B37",
"-  c #383B39",
";  c #35443F",
":  c #3D403B",
">  c #3E4A3C",
",  c #42453C",
"<  c #414E3C",
"1  c #45533D",
"2  c #48563E",
"3  c #49573E",
"4  c #384841",
"5  c #3D5144",
"6  c #475D48",
"7  c #515341",
"8  c #5B5D44",
"9  c #526341",
"0  c #546542",
"q  c #5B6D44",
"w  c #5C6F44",
"e  c #577653",
"r  c #5C7F56",
"t  c #656647",
"y  c #6C6D49",
"u  c #617545",
"i  c #617546",
"p  c #667447",
"a  c #637846",
"s  c #6F704A",
"d  c #677D48",
"f  c #697F48",
"g  c #7C7D4E",
"h  c #6B8249",
"j  c #6C8349",
"k  c #6F864A",
"l  c #738B4B",
"z  c #77904C",
"x  c #7A944D",
"c  c #7E994E",
"v  c #678D5B",
"b  c #688F5D",
"n  c #6D9760",
"m  c #709C62",
"M  c #769C6B",
"N  c #759F6A",
"B  c #739A6D",
"V  c #759B6C",
"C  c #668F75",
"Z  c #679075",
"A  c #6A9372",
"S  c #6A9273",
"D  c #6C9770",
"F  c #6F9473",
"G  c #6A9174",
"H  c #6D9274",
"J  c #709473",
"K  c #729572",
"L  c #759672",
"P  c #7D9A70",
"I  c #75A365",
"U  c #76A465",
"Y  c #76A467",
"T  c #77A666",
"R  c #79A461",
"E  c #7CA167",
"W  c #78A765",
"Q  c #78A666",
"!  c #7FA465",
"~  c #7CA963",
"^  c #7DA963",
"/  c #7DAA63",
"(  c #7EAA62",
")  c #7AA864",
"_  c #7BA864",
"`  c #7BA964",
"'  c #7CA964",
"]  c #7CA866",
"[  c #7FA866",
"{  c #878752",
"}  c #888852",
"|  c #8D8D53",
" . c #829E50",
".. c #8AA852",
"X. c #8DAC53",
"o. c #8DAC54",
"O. c #87AB58",
"+. c #84AE5F",
"@. c #85AE5F",
"#. c #86AF5E",
"$. c #87AF5E",
"%. c #8CB25B",
"&. c #8DB35B",
"*. c #8EB35A",
"=. c #8FB35A",
"-. c #88B05D",
";. c #89B05D",
":. c #8AB15C",
">. c #8BB25C",
",. c #8BB05E",
"<. c #8EB15C",
"1. c #90B054",
"2. c #95B655",
"3. c #95B657",
"4. c #95B757",
"5. c #96B756",
"6. c #96B856",
"7. c #97B856",
"8. c #98B856",
"9. c #99B857",
"0. c #9AB857",
"q. c #9BB857",
"w. c #90B459",
"e. c #91B559",
"r. c #92B558",
"t. c #93B558",
"y. c #92B459",
"u. c #93B658",
"i. c #94B658",
"p. c #97B35D",
"a. c #9AB35F",
"s. c #9CB858",
"d. c #9DB858",
"f. c #A1A05A",
"g. c #A2A15A",
"h. c #A6A45B",
"j. c #B0AE5E",
"k. c #A3B35A",
"l. c #A6B65F",
"z. c #A0B859",
"x. c #A1B959",
"c. c #A2B959",
"v. c #A2B95A",
"b. c #A3B95A",
"n. c #A4B95A",
"m. c #A5B95B",
"M. c #A7B95B",
"N. c #A8B95B",
"B. c #A9B95C",
"V. c #AAB95C",
"C. c #ABB95D",
"Z. c #ACB95D",
"A. c #ADB95D",
"S. c #AEB95D",
"D. c #AEB95E",
"F. c #AFB95E",
"G. c #B1B95E",
"H. c #B2B95F",
"J. c #819C6F",
"K. c #829D6F",
"L. c #839E6E",
"P. c #859E6E",
"I. c #80AB61",
"U. c #80AB62",
"Y. c #85A961",
"T. c #87AB60",
"R. c #84A862",
"E. c #81AC61",
"W. c #82AC60",
"Q. c #83AD60",
"!. c #81A965",
"~. c #83A965",
"^. c #87AB65",
"/. c #8DAC65",
"(. c #8AA16D",
"). c #8DA26C",
"_. c #8EA36C",
"`. c #90AD65",
"'. c #96AF64",
"]. c #90A46C",
"[. c #9AA969",
"{. c #9BAA69",
"}. c #9EAB69",
"|. c #9DB164",
" X c #9FB264",
".X c #A5AF67",
"XX c #A0AC68",
"oX c #A2AD68",
"OX c #A5B363",
"+X c #AAB563",
"@X c #AEB663",
"#X c #AEB365",
"$X c #AFB365",
"%X c #B3B664",
"&X c #B4BA60",
"*X c #B6BA60",
"=X c #B7BA60",
"-X c #B4B862",
";X c #BAB861",
":X c #B8BA61",
">X c #B9BA61",
",X c #BABA61",
"<X c #B9B962",
"1X c #B8B863",
"2X c #BBBA62",
"3X c #BCBA62",
"4X c #909297",
"5X c #9A9B9F",
/* pixels */
"} 3X3X3X3X3X3X3X- # O = 7.7.7.7.= = +     = 7.7.7.= & . 4 T T T T T b   - y 3X3X3X3X3X3X3X3Xg -     5X4X    3X3X3X3X3X3X3X3X3X  ",
"} 3X3X3X3X3X3X3X3X, $ 7.7.7.7.7.7.7.%     7.7.7.7.7.T @ 4 T T T T U     3X3X3X3X3X3X3X3X3X3X3X3X            3X3X3X3X3X3X3X3X3X  ",
"  o 3X3X3X3X3X3X3X, $ 7.7.7.7.7.7.7.%     7.7.7.7.7.T T T T T T OX;X  3X3X3X3X3X3X3X3X3X3X3X3X3X3X    : 3X3X3X3X3X3X3X3X3X3X3X  ",
"      3X3XS.7.7.7.7.7.7.7.7.7.7.7.7.%     7.7.7.7.7.3X3X3X3X3X3X3X3X3X3X3X3X3X3X3X3X3X3X3X3X3X3X3X    : 3X3X3X3X3X3X3X3X3X3X3X  ",
"      t N.x.7.7.7.7.7.7.7.7.7.7.7.7.d 9   0 7.7.7.C.3XB.N.N.3X3X3X3X3X3X3X3X3X3X3X3X3X3X3X3X3X3Xt     : 3X3X3X3X3X3X3X3Xg.t t   ",
"        7.7.7.7.7.7.7.7.7.7.7.7.7.7.7.c     7.7.7.3X3X9.7.7.3X3X3X3X3X3X3X3X3X3X3X3X3X3X3X3X3X3X      : 3X3X3X3X3X3X3X3X|       ",
"7       7.7.7.7.7.7.7.7.7.7.7.7.7.7.7.7.7.7.7.7.7.3X7.7.7.7.7.3X3X3X3X3X3X3X3X3X3Xz.7.7.7.3Xs       h.&X7.7.3X3X3X3X            ",
"3X3X3X  7.7.7.7.7.7.7.7.7.7.7.7.7.7.7.7.7.7.7.7.7.7.7.7.7.7.7.7.7.7.7.7.3X3X3X3X7.7.7.7.7.7.w   3X7.7.7.7.7.7.7.7.3X    < 7.7.3X",
"3X3X3Xj.>XZ.7.7.7.7.7.7.7.7.7.7.7.7.7.7.7.7.7.7.7.7.7.7.7.7.7.7.7.7.7.7.0.M.3X3X7.7.7.7.7.7.k.j.0.7.7.7.7.7.7.7.7.0.X.X.1.7.7.3X",
"3X3X3XH.H.N.7.7.7.7.7.7.7.7.7.7.7.7.7.7.7.7.7.7.7.7.7.7.7.7.7.7.7.7.7.7.7.c.H.H.7.7.7.7.7.7.B.3X7.7.7.7.7.7.7.7.7.7.7.7.7.7.7.3X",
"3X3X3X7.7.7.7.7.7.7.7.7.7.7.7.7.7.7.7.7.7.7.7.7.7.7.7.7.7.7.7.7.7.7.7.7.7.7.7.7.7.7.7.7.7.7.B.3X7.7.7.7.7.7.7.7.7.7.7.7.7.7.7.3X",
"7.7.7.7.7.7.7.T T T T T T T #.7.7.7.7.7.7.7.7.7.7.7.7.7.7.7.7.7.7.7.7.7.7.7.7.7.7.7.7.7.7.7.7.7.7.7.7.7.7.7.7.7.7.7.7.7.7.7.7.7.",
"7.2.    T T T T T T T T T T T T 7.T T T T T 7.7.7.7.7.7.7.7.3X3X3X2X7.7.7.7.7.7.7.7.7.7.7.7.7.7.7.7.7.7.7.7.7.7.7.7.    < 7.7.7.",
"3 2   e T T T T T T T T T T T T W.T T T T T W.*.7.7.7.S.F.F.3X3X3X3XF.7.7.7.7.7.7.7.7.7.7.7.7.7.W.W.W.$.7.7.7.7.7.7.h h i 3 3 3 ",
"      T T T T T T T T T T T T T T T T T T T T ;.7.7.7.,X3X3X3X3X3X3X3X7.7.7.7.7.7.7.7.7.7.7.7.7.T T T / 7.7.7.7.7.7.7.7.l       ",
"  X T T T T T T T T T T T T T T T T T T T T T  X3X3X3X3X3X3X3X3X3X3X3X3X3X3X3X3XT T T T 7.7.$.T T T T T T 7.7.7.7.7.7.7.7.7.    ",
"7.7.7.T T Q.7.7.7.7.7.7.T T T T T T T T T T T T T T T <X3X3X3X3X3X3X3X3X3X3X3XT T T T T T T T T 7.7.` T T T 7.7.7.7.7.7.7.7.T   ",
"7.7.7.7.7.7.7.7.7.7.7.7.7.T T T T 7.7.7.7.T T T T T T T T T 3X3X3X2XT T T T T T 7.7.u.T T T #.7.7.7.7.w.T T T ;.7.7.7.7.&.T T   ",
"7.7.7.7.7.7.7.7.7.7.7.7.7.T T T W.7.7.7.7.W.W.W.W.W.W.W.W.W.F.F.F.D.W.W.W.W.W.W.7.7.4.W.W.W.%.7.7.7.7.u.W.W.W.*.7.7.7.%.@.T T 5 ",
"7.7.7.7.7.7.7.7.7.7.7.7.7.T T T 7.7.7.7.7.7.7.7.7.7.7.7.7.7.7.7.7.7.7.7.7.7.7.7.7.7.7.7.7.7.7.7.7.7.7.7.7.7.7.7.7.7.7.W T T T T ",
"7.7.7.7.7.7.7.7.7.7.7.7.7.7.7.7.7.7.7.7.7.7.7.7.7.7.7.7.7.7.7.7.7.7.7.7.7.7.7.7.T T ) 7.7.7.7.7.7.T T T T T 7.7.7.7.7.W T T T T ",
"7.7.7.7.7.7.7.7.7.7.7.7.7.7.7.7.7.7.7.7.7.C C C C C C C V 7.7.7.M C C C 7.:.T T T T T T 7.T T T T T T T T T T ;.7.7.T T T T T T ",
"x 6.B B B B B B 7.7.t.B B B R.7.7.7.D.H.H..X.XJ.C C C C S B 7.B A C C C B N T T T T T T U.T T T T T T T T T T ' U.U.T T T T ; ; ",
"f o.C C C C C C t.t.<.C C C E t.7.0.=X3X3X3X3X_.H H C C C C t.C C C H H C D Y T T T T T T T T T T T T T T T T T T T T T I m     ",
"  X C C C C C C C C C C C C C C 7.3X3X3X3X3X3X3X3X3XC C C C C C C Z 3X3XC C C T T T T T T T T T T T T T T T T T T T T T r       ",
"7       3X3X3XC C C F 3X3XC C C 3X3X3X3X3X3X3X3X3X3X3XG C C C C XX3X3X3X3X[.C C 3X3X-XT T T #.7.7.T T / 7.7.7.+.T T T T I.7.7.7.",
"3X3X3X3X3X3X3X3X3X3X3X3X3X3X3X3X3X3X3X3X3X3X3X3X3X3X3X3XoXC C 3X3X3X3X3X3X3X3X3X3X3X3X3XT T #.7.7.7.7.7.7.7.7.7.7.T T T T T T T ",
"3X3X3X3X3X3X3X3X3X3X3X3X3X3X3X3X3X3X3X3X3X|.|.|.|.3X3X3X#X).C 3X3X3XC.C.3X3X3X3X3X3X3X3X'.'.p.7.7.7.7.7.7.7.7.7.7.T T T T T T T ",
"3X3X3X3X3X3X3X3X3X3X3X3X3X3X3X3X3X3X3X3X3XT T T T 3X3X3X3X3XC 3X3X2X7.7.3X3X3X3X3X3X3X3X3X3XV.7.7.7.7.7.7.7.7.7.7.T T T T T T T ",
"3X3X3X3XT T T T 3X3X3X3X3X3X3X3X3X3X3X@XT T T T T T 3X3X3X3X3X3Xb.7.7.7.7.m.3X3X3X3X3X3X3X3X3X3X3X7.7.7.7.7.7.7.7.T T T T T T 3X",
"3X2XT T T T T T T T [ 3X3XT T T T T T T T T T T T T T T T T 7.7.7.7.7.7.7.7.7.7.7.7.7.7.3X3X3X3X7.7.7.7.7.7.7.+.T T 3X3X3X3X3X  ",
"d.d.e.e.e.e.e.T T T Q ~.~.T T T T T T T T T T T T T T T T T ~ ~ ~ ^ 7.7.7.7.7.7.7.7.7.7.d.d.d.d.7.7.7.7.7.7.7.i.e.e.d.d.d.d.d. .",
"7.7.7.7.7.7.7.~ ~ ~ ~ ~ T T T T T T T T T T T T T T T T T T T T T T e.e.e.i.7.7.7.u.e.e.e.e.e.e.e.7.7.7.7.7.7.7.7.7.7.7.7.7.7.7.",
"7.7.7.7.7.7.7.7.7.7.7.7.T T T T T T T T T T T T T T T T T T T T T T T T T Q.7.7.7.( T T T T T T T 7.7.7.7.7.7.7.7.7.7.7.7.7.7.7.",
"k 7.7.7.7.7.7.7.7.7.7.7.7.7.7.7.7.T T T T T T T T T T T T T T T T T T T T T T T T T T T T T T T T 7.7.7.7.7.7.7.7.7.7.7.7.7.7.7.",
"  o 7.7.7.7.7.7.7.7.7.7.T T T T T T T T T 7.7.7.7.T T T T T T T T T T T T T T T T T T T 3X3X3X3XT 7.7.7.7.7.7.7.7.7.7.7.7.7.7.7.",
"p u 7.7.7.w.@.@.@.@.@.@.T T T T T T T _ -.7.7.7.7.-.T T T T T T T T T -.-.-.-.-.-.-.,.|.3X3X3X3X|.7.7.7.7.7.7.7.7.7.7.7.7.7.7.0 ",
"b.7.7.7.7.:.T T T T T T T T T T T T T / 7.7.7.7.7.7.T T T T T T T T T 7.7.7.7.7.7.7.q.3X3X3X3X3X3X7.7.7.7.7.7.7.7.7.7.7.7.7.7.  ",
"3X2X7.7.7.7.7.7.7.7.7.7.7.7.7.7.7.7.7.7.7.7.7.7.7.7.T T T T T 7.7.7.7.7.7.m.3X3X7.7.q.3X3X3X3X3X3X3Xs.7.7.7.7.7.7.7.7.7.7.7.7.7.",
"3X3X3X7.7.7.7.7.7.7.7.7.7.7.7.7.7.7.7.7.7.7.7.7.7.7.7.7.7.7.7.7.7.7.7.3X3X3X3X3X3X3X3X3X3X3X3X3X3X3Xs.7.7.7.7.7.7.7.7.7.7.7.7.7.",
"0.0.0.7.7.7.7.7.7.7.7.7.7.7.7.7.7.7.7.7.7.7.7.7.7.7.7.7.7.7.7.7.7.8.>X3X3X3X3X3X3X3X3X3X] ] ] ] 3X3X,X>X>X>X>Xm.7.7.7.7.7.7.7.7.",
"7.7.7.7.7.7.7.7.7.7.7.7.7.7.7.7.7.7.7.7.7.7.7.7.7.7.7.7.7.7.7.7.e.=.+X+X+X+X+X+X+X+X+X+XT T T T +X3X3X3X3X3X3XZ.x.x.x.x.x.x.*.z ",
"7.7.7.7.7.7.7.7.7.7.7.7.7.7.7.7.7.7.7.7.7.7.7.7.7.7.7.7.7.7.7.7.E.T T T T T T T T T T T T T T T T 3X3X3X3X3X3X3X3X3X3X3X3X3XT   ",
"  o 7.7.7.7.7.7.7.7.7.7.7.7.7.7.7.7.7.7.7.7.7.7.7.7.7.7.7.7.7.T T T T T T Q.7.7.T T T T T T T T T T T T T T T T T T T T T T T T ",
"k 7.7.7.7.7.7.7.7.7.7.7.7.7.7.7.7.7.7.7.7.7.7.7.7.7.7.W T T T T T T T 7.7.7.7.7.7.( T T T T T T T T T T T T T T T T T T T T T T ",
"k 7.7.7.7.7.7.7.7.7.7.7.7.7.7.7.7.7.7.7.7.7.7.7.7.7.7.%.>.>.>.>.>.>.>.7.7.7.7.7.7.*.>.>.>.T T T T T T T T T T T T T T T T T T T ",
"k 7.7.7.7.7.7.7.7.7.7.7.7.7.7.7.7.7.7.7.7.7.7.7.7.7.7.7.7.7.7.7.7.7.7.7.7.7.7.7.7.7.7.7.7.T T T T T T T T T T T T T T T T T T T ",
"k 7.7.7.7.7.7.7.7.7.7.7.7.7.7.7.7.7.7.7.7.7.7.7.7.7.7.7.7.7.7.7.7.7.7.7.7.7.7.7.7.7.7.7.7.7.$.T T T r.7.7.7.7.+.T T T T T T T 7.",
"7.7.7.7.7.7.7.7.7.7.7.7.7.7.! C C C C C C 7.7.7.7.7.C C C C C C T.7.7.7.7.7.7.7.3X3X3X3X7.7.$.T T 7.7.7.7.7.7.7.7.T 7.7.7.7.7.7.",
"7.7.7.7.7.7.7.7.7.7.7.7.C C C C C C C C C C 7.7.7.C C C C C C C C Z 7.7.7.7.7.3X3X3X3X3X3X7.$.T T 7.7.7.7.7.7.7.7.7.7.7.7.7.7.7.",
"7.7.7.7.7.7.7.7.7.7.3.Y.C C L P.P.P.G C C C Y.Y.Y.C C L.P.P.P.P.J C Y.7.7.s.n.3X3X3X3X3X3Xn.a.`.T >.4.7.7.7.7.7.7.7.7.7...h h 7.",
"7.7.7.7.7.7.7.7.7.7.y.C C C ].3X3X3XK C C C C C C C C 1X3X3X3X3XK.C C 7.7.m.3X3X3X3X3X3X3X3X3X3XT T r.7.7.7.7.7.7.7.7.7.l     7.",
"7.5.C C 7.7.7.C C C C C C 3X3X3X3X3X3X3X3XC C C C C 3X3X3X3X3X3X3X3X3XC 7.m.3X3X3X3X3X3X3X3X3X3X3X7.7.7.7.7.7.7.7.7.7.7.v.3X    ",
"7.5.C C C C C C C C C C C 3X3X3X3X3X3X3X3X3X3X(.C 3X3X3X3X3X3X3X3X3X3X3X3X3X3X3X3X3X3X3X3X3X3X3X3X7.7.7.7.7.7.7.7.3X3X3X3X3X3X3X",
"q > C C C C C C .X.X}.C C P {.3X3X3X3X3X3X3X3X$X.X3X3X3X3X3X3X3X3X3X3X3X3X3X3X3X3X3X3X3X3X3X3X3X3XH.H.A.7.7.7.7.7.3X3X3X3X3X3X3X",
"1 X H C C C C H 3X3X%XH H C ].3X3X3X3X3X3X3X3X3X3X3X3X3X3X3X3X3X3X3X3X3X3X3X3X3X3X3X3X3X3X3X3X3X3X3X3X&X7.7.7.7.7.>X>X>X>X>X>X>X",
"1 o 3XC C C C 3X3X3X3X3X3XC ].3X3X3X3X3X3X3X3X3X3X3X3X3X3X3X3X3X3X3X3X3X3X3X3X3X3X3X3X3X3X3X3X3X3X3X3X&X7.7.7.7.7.7.7.7.7.7.7.7.",
"      3X3X3X3X3X3X3X3X3X3X3X3X3X3X3X3X3X3X3X3X3X3X3X3X3X3X3X7.7.7.7.7.3X3X3X3X3X3X^.T T 3X3X3X3X3X3X3X3X3X3X3XM.7.7.7.7.7.7.7.7.",
"          8 3X3X3X3X3X3X3X3X3X3X3X3X!.T T T T  X3X3X3X3XG.7.7.7.7.7.7.7.3X3X3X3XT T T T T 3X3X3X3X3X3X3X3X3X3X3X3X7.7.7.7.7.7.7.",
"      t t { 3X3XC.C.C.C.C.3X3X3X3X|.] T T T T /.|.C.C.2XG.7.7.7.7.7.7.7.C.l.|.|.T T T T T 3X3X3X3X3X3X3X3XC.C.C.C.7.7.7.7.7.7.7.",
"      3X3X3X3X3X7.7.7.7.7.3X3X3X3XT T T T T T T T 7.7.,XG.7.7.7.7.7.7.7.7.:.T T T T T T T 3X3X3X3X3X3X3X3X7.7.7.7.7.7.7.7.7.7.7.",
"  o 7.3X3X3X3X7.7.7.u.T T T T T T T T T T T T T T 7.7.7.7.7.7.7.7.6.T T T T T T T T T T T 7.7.7.7.7.7.7.7.7.7.7.7.7.7.7.7.7.    ",
"k 7.7.3X3X3X3X7.7.( T T T T T T   T T T T T T ;.7.7.7.7.7.7.7.7.E.T T T T T T T T T n     7.7.7.7.7.7.7.7.7.7.7.7.7.7.7.v.3X    ",
"O.7.7.d.d.B.3X7.= v T T T T T T   T T T T T T ) ~ ~ = R +.7.7.~ 6 * T T T T T e.e.^ I b   = a 7.7.7.7.7.7.7.= j 7.7.*X*X:X3Xf.  "
};
