/* XPM */
static char *result[] = {
/* columns rows colors chars-per-pixel */
"64 64 211 2 ",
"   c #1D2131",
".  c #232634",
"X  c #262835",
"o  c #2B2C36",
"O  c #272B39",
"+  c #292D3A",
"@  c #312F37",
"#  c #2C3436",
"$  c #2E323F",
"%  c #2D393B",
"&  c #333B37",
"*  c #383B37",
"=  c #35333A",
"-  c #39363E",
";  c #3A3A3B",
":  c #443D3E",
">  c #3D413C",
",  c #38463E",
"<  c #44443A",
"1  c #48493C",
"2  c #524E3E",
"3  c #45533D",
"4  c #49573E",
"5  c #59563E",
"6  c #615E3F",
"7  c #323643",
"8  c #353945",
"9  c #3D3D42",
"0  c #393D49",
"q  c #423D43",
"w  c #384941",
"e  c #3D404D",
"r  c #3D5144",
"t  c #464446",
"y  c #4C4442",
"u  c #514641",
"i  c #574C46",
"p  c #5D4F46",
"a  c #524C4A",
"s  c #485B44",
"d  c #575846",
"f  c #5A534D",
"g  c #474A54",
"h  c #5B5853",
"j  c #51535E",
"k  c #665549",
"l  c #675748",
"z  c #6D5B4A",
"x  c #705E4B",
"c  c #655754",
"v  c #625A51",
"b  c #6C5C58",
"n  c #576447",
"m  c #5C6E45",
"M  c #50655B",
"N  c #597A54",
"B  c #656545",
"V  c #6B6A45",
"C  c #736947",
"Z  c #7C6C4C",
"A  c #687648",
"S  c #787547",
"D  c #6C6456",
"F  c #706359",
"G  c #78655E",
"H  c #7A6C5C",
"J  c #6E7350",
"K  c #7E715E",
"L  c #545762",
"P  c #5C5D63",
"I  c #5D606A",
"U  c #577864",
"Y  c #63656B",
"T  c #696A69",
"R  c #7D6961",
"E  c #797768",
"W  c #6C6E74",
"Q  c #767678",
"!  c #73757D",
"~  c #85784B",
"^  c #8A7B4D",
"/  c #8F7C5F",
"(  c #846E63",
")  c #837461",
"_  c #8C7C65",
"`  c #8D7568",
"'  c #957B6C",
"]  c #6D844A",
"[  c #738B4B",
"{  c #7A944D",
"}  c #688D5D",
"|  c #7C8154",
" . c #678562",
".. c #709C62",
"X. c #739A6D",
"o. c #6C8770",
"O. c #668F75",
"+. c #718B72",
"@. c #6E9375",
"#. c #799677",
"$. c #77A666",
"%. c #79A665",
"&. c #7CA964",
"*. c #7FAA6B",
"=. c #8D8649",
"-. c #93854D",
";. c #958C4A",
":. c #9D924D",
">. c #878954",
",. c #A59A4E",
"<. c #8BA855",
"1. c #86AE5E",
"2. c #90A55F",
"3. c #8BB15C",
"4. c #95B656",
"5. c #97B856",
"6. c #9AB857",
"7. c #92B559",
"8. c #9CB858",
"9. c #ADA34E",
"0. c #B0A64F",
"q. c #A5A35A",
"w. c #B4AC53",
"e. c #B6AA5D",
"r. c #A5B55D",
"t. c #A2B95A",
"y. c #ABB95D",
"u. c #BAB45A",
"i. c #BAB65C",
"p. c #B2B95F",
"a. c #85886C",
"s. c #8F8C6B",
"d. c #9A856C",
"f. c #8C8877",
"g. c #8B9B7C",
"h. c #959379",
"j. c #A28D6F",
"k. c #AC9A6F",
"l. c #A78C73",
"z. c #A39172",
"x. c #AB9274",
"c. c #B59C78",
"v. c #82AB61",
"b. c #8AA967",
"n. c #97AB68",
"m. c #9DB164",
"M. c #97B568",
"N. c #9AB67B",
"B. c #A6AC65",
"V. c #A5AD66",
"C. c #BBA967",
"Z. c #ABB462",
"A. c #B4B665",
"S. c #B5BA60",
"D. c #BCBA62",
"F. c #BEA37C",
"G. c #AAB374",
"H. c #B7B17B",
"J. c #C3AE6D",
"K. c #C2B969",
"L. c #C3A97B",
"P. c #C4A97F",
"I. c #CAB279",
"U. c #B7C36E",
"Y. c #B1C471",
"T. c #C6C465",
"R. c #C6C569",
"E. c #CACA69",
"W. c #CFD16E",
"Q. c #CBCC73",
"!. c #D4D974",
"~. c #D5DA74",
"^. c #D9DF78",
"/. c #7C7D84",
"(. c #7F8188",
"). c #799A85",
"_. c #8A8681",
"`. c #96979C",
"'. c #A69C82",
"]. c #A29F99",
"[. c #97AB87",
"{. c #ACA586",
"}. c #AFAD8A",
"|. c #BAA785",
" X c #9F9FA3",
".X c #C5AC81",
"XX c #C9AD81",
"oX c #CEB183",
"OX c #D2B585",
"+X c #D5BA8A",
"@X c #D8BE8D",
"#X c #C8BF97",
"$X c #ABC085",
"%X c #C3CD82",
"&X c #D5C28C",
"*X c #CAC799",
"=X c #DAC492",
"-X c #DDCB96",
";X c #D0CC9D",
":X c #DFCD9A",
">X c #DCD798",
",X c #E2CF9C",
"<X c #E1D59B",
"1X c #E1DD99",
"2X c #DEE188",
"3X c #DCD2A3",
"4X c #DEDAA6",
"5X c #E5D9A4",
"6X c #EBDEAA",
"7X c #E8E3A9",
"8X c #EDE1AD",
/* pixels */
">.D.D.D.D.D.D.D.* X   & 5.5.5.5.& ,       & 5.5.5.& #   w $.$.$.$.$.}   * A D.D.D.D.D.D.D.D.S ;      X`.    D.D.D.D.D.D.D.D.D.  ",
">.D.D.D.D.D.D.D.D.< + 5.5.5.5.5.5.5.#     5.5.5.5.5.$.. w $.$.$.$.$.    D.D.D.D.D.D.D.D.D.D.D.D.            D.D.D.D.D.D.D.D.D.  ",
"  . D.D.D.D.D.D.D.< # 5.5.5.5.5.5.5.#     5.5.5.5.5.$.$.$.$.$.&.V.D.  D.D.D.D.D.D.D.D.D.D.D.D.D.D.    * D.D.D.D.D.D.D.D.D.D.D.  ",
"      D.D.y.5.5.5.5.5.5.5.5.5.5.5.5.#     5.5.5.5.5.i.p.D.D.D.D.i.D.D.D.D.D.D.D.D.D.D.D.D.D.D.D.D.    > D.D.D.D.D.D.D.D.D.D.D.  ",
"      B t.t.5.5.5.5.5.5.5.5.5.5.5.5.] n   n 5.5.5.y.D.y.y.y.D.D.D.D.D.D.D.D.D.D.D.D.D.D.D.D.D.D.B     > D.D.D.D.D.D.D.D.q.B B   ",
"        5.5.5.5.5.5.5.5.5.5.5.5.5.5.4.{     5.5.6.U.i.5.5.4.D.D.D.D.D.D.D.D.D.D.D.D.D.D.D.D.D.D.      > D.D.D.D.D.D.D.D.>.      ",
"2       5.5.5.5.5.5.5.5.5.5.5.5.5.5.5.5.5.5.5.g > < .   T T 5.D.D.D.D.D.D.D.D.D.D.8.5.5.5.D.A       q.S.5.5.D.D.D.D.            ",
"D.D.D.  5.5.5.5.5.5.5.5.5.5.5.5.5.5.5.5.5.5.g . =.u.V m d O I 5.5.5.5.5.D.D.D.D.5.5.5.5.5.5.m   D.5.5.5.5.5.5.5.5.D.    3 5.5.D.",
"D.D.D.p.D.y.5.5.5.5.5.5.5.5.5.5.5.5.5.5.L   < 5 q.!.^.^.!.J n 7 5.5.5.5.8.y.i.D.5.5.5.5.5.5.r.e.5.5.5.5.5.5.5.5.5.5.<.<.4.5.5.i.",
"D.D.D.p.p.t.5.5.5.5.5.5.5.5.5.5.5.5.5.9 # p ;.i.!.^.^.T.R.^.Q.S | D T 5.5.t.p.p.5.5.5.5.5.5.y.D.5.5.5.5.5.5.5.5.5.5.5.5.4.4.5.D.",
"D.D.D.5.5.5.5.5.5.5.5.5.5.5.5.5.5.5.j   2 ,.9.u.!.^.^.R.R.^.^.^.^.>.j 5.5.5.5.5.5.5.5.5.5.5.y.D.5.5.5.5.5.5.5.5.5.5.5.5.5.5.5.D.",
"5.5.5.5.5.5.5.$.$.$.$.$.$.$.1.5.5.5.  < ;.0.0.0.W.^.^.^.^.!.T.~.^.A.d e 5.5.5.5.5.5.5.5.5.5.5.5.5.5.5.5.5.5.5.5.5.5.5.5.5.5.5.5.",
"5.5.    $.$.$.$.$.$.$.$.$.$.$.$.4.$.o l ;.0.0.0.W.^.^.^.^.!.w.T.^.!.J   5.5.5.5.5.5.5.5.5.5.5.5.5.5.5.5.5.5.5.5.4.4.    3 5.5.5.",
"4 4   N $.$.$.$.$.$.$.$.$.$.$.$.1.$.@ z ^ 0.B & > > > > ^.^.W.B.V R.p.;.a.5.5.5.5.5.5.5.5.5.5.5.1.1.v.1.5.5.5.5.4.4.] ] A 4 4 4 ",
"      $.$.$.$.$.$.$.$.$.$.$.$.$.%.$.1 ,.9.V .           > ^.^.q.. | ~.J T 5.5.5.5.5.5.5.5.5.5.5.$.$.$.&.5.5.5.5.5.5.5.5.[       ",
"    $.$.$.$.$.$.$.$.$.$.$.$.$.$.%.&.= ~ 0.^ z z z z X     & u.^.R.V >.i.1 D.D.D.&.$.$.$.5.5.1.$.$.$.$.$.$.5.5.5.5.5.5.5.5.5.    ",
"4.5.5.$.$.1.5.5.5.5.5.5.$.$.$.$.$.$.@ z ^ 9.~ z z z k       * u.E.C V 9.1 D.D.$.$.$.$.$.$.$.$.$.5.5.&.$.$.$.5.5.5.5.5.5.5.5.$.  ",
"5.5.5.5.5.5.5.5.5.5.5.5.5.$.$.$.$.5.O = k z z z z k X   O   o Z 9.,.,.~ = $.$.$.5.5.7.$.$.%.1.5.5.5.5.7.$.$.$.1.5.5.5.5.7.$.$.  ",
"5.5.5.5.5.5.5.5.5.5.5.5.5.$.$.$.v.5.W 8 - p p p p X 7 1.1.1.  1 =.z z p a 1.1.&.5.5.5.1.1.&.3.5.5.5.5.7.1.1.&.3.5.5.5.3.1.$.$.r ",
"5.5.5.5.5.5.5.5.5.5.5.5.5.$.$.$.5.5.5.5.j 0       g 7.7.5.5.  : C V 6   `.7.5.5.5.5.5.5.5.5.5.5.5.5.5.5.5.5.5.5.5.5.5.$.$.$.$.$.",
"5.5.5.5.5.5.5.5.5.5.5.5.5.5.5.5.5.5.5.5.4.5.I I L b.2.1.2.  . : 2 C 2   W 5.5.5.$.$.%.5.5.5.5.5.5.$.$.$.$.$.5.5.5.4.4.%.$.$.$.$.",
"5.5.5.5.5.5.5.5.5.6.5.5.5.5.5.5.5.5.5.5.5.O.).).).7 h h ` . y i   @ k D =   $.$.$.$.$.$.5.$.$.$.$.$.$.$.$.$.$.3.5._.|.'.$.$.$.$.",
"{ 5.X.X.X.X.X.X.4.6.7.X.X.X.b.5.5.5.y.S.A.B.G.g.7   o.o.+.} <. .U U o.#.a.o   $.$.$.$.$.&.%.$.$.$.$.$.$.$.$.$.&._.|.OX'.$.$., , ",
"A <.O.O.O.O.O.O.4.4.3.O.O.O.%.7.5.6.i.D.D.D.A.7 a h M M [.[.H.[.g.h.N.[.*X{._ X $.$.$.$.$.$.$.$.$.$.$.$.$.$.$.].|.H.X.f.$...    ",
"    O.O.O.O.O.O.O.O.O.O.O.O.O.O.5.D.D.D.D.D.g   G ' d.{.8X8X8X6X5X<X6X8X8X8X@Xd.  $.$.$.$.$.$.$.$.$.$.&.$.$.f.|.H.%.} Q  .      ",
"4 .     D.D.D.O.O.O.@.D.D.O.O.O.D.D.D.D.D.D.g   G ' XX@X8X8X*X@.V.K.D.D.K.m.*X+X  L S.$.$.$.1.5.5.$.$.&.4./.t H.%.*.g.! &.4.4.4.",
"D.D.D.D.D.D.D.D.D.D.i.D.D.D.D.D.D.D.D.D.D.D.X   G ' oXOX8X8X5X<X>X:XR.D.D.D.<X6X  $ D.D.$.$.1.5.5.5.5.5.5.|., 5.4.b._.! $.$.$.$.",
"D.D.D.D.D.D.D.D.D.D.D.D.D.D.D.D.D.D.D.D.D.g   b ' ' XXOX8X8X8X8X8X8XU.Z.S k.5X8XF.7 D.D.n.M.4.5.5.5.5.5..X+X;X5.8.&Xh.! $.$.$.$.",
"D.D.D.D.D.D.D.D.D.D.D.D.D.D.D.D.D.D.D.D.D.g   b ' ' XXOXOX@X8X8X8X8X8X7Xv   |.6X6X  0 D.D.D.y.5.5.5.5.5.oX+X1X6.OX-Xh.! $.$.$.$.",
"D.D.D.D.$.$.$.$.D.D.D.D.D.D.D.A.D.D.D.Z.$.. c ' ' XXOXOXOXOX@X6X7XY.4.5.m   F.OX8XO 0 D.D.D.D.D.D.5.5.5.  5.1X7.&X7Xf.! $.$.$.i.",
"D.D.%.$.$.$.$.$.&.$.*.D.D.$.$.$.$.$.$.$.$.  c ' d..XOXOXOXOXOX+X,XU.4.5.m   d.oX8X.X8 5.D.D.D.D.5.5.5.$ e 5.5XOX&X{.. Q D.i.S.  ",
"8.8.7.7.7.7.3.%.$.$.&.v.v.O   . $.$.$.$.$.  c ' .XOXOXOXOXOXOX@X8X8XY.5.m     .X8X3X  5.8.8.8.8.5.5.5.7 5X7XOXOXP.H g 8.t.5.5.<.",
"5.5.5.5.5.5.5.&.&.&.&.&.7   a i Y T $.$.$.  a F x.F.F.OXd.d.j.z.{.{.2.<.3     ' {.'.  7.3.7.7.7.7.5.5.T 7X5XoXP.H + h 5.5.5.5.5.",
"5.5.5.5.5.5.5.5.4.5.5.5.$   _ I.f O /.$.$.      G ' x.OXh f       .                   $.$.$.$.$.$.7.7 ;X7XOXOXc.  e 5.5.5.5.5.5.",
"] 5.5.5.5.5.5.5.4.5.5.5.=     ) .Xf 8 /.j     q ( ' oXOX+X.X) E h               F N   %.$.$.$.$.$.4.  ;Xh.OXoXc.O I 5.5.5.5.5.5.",
"    5.5.5.5.5.5.5.5.5.7.7     . R L.v         q ` x.oXOXOX+X,X8X#Xf.f.} ,       OXN.E 8 D.D.D.D.$.j E 4XO +XP.v 8 5.5.5.5.5.5.5.",
"A A 4.4.5.3.1.1.1.1.1.1.$   S S S H F._ f       G l.x.x.OXOXOX,X8X8X$Xb.n     ) M.M.*X8 D.D.D.D.m.f.4X|.s.oXf O 5.5.5.5.5.5.5.n ",
"t.5.5.5.5.3.%.$.$.$.$.$.7   ,.0.9.S b l.' q     - ( ' ' OXOXOX+X<X8X;XU.n   _ oX7.%X#X0 D.D.D.D.X }.8Xf oXoX  7 5.5.5.5.5.5.5.  ",
"D.i.5.5.5.5.5.5.5.5.5.5.0   9.0.w.,.:..XP.c.x.x.q = 8 - OXOXOXOX+X<X8XY.m   F.3X%X5Xt X 7 7 8 +   }.T X P.oX5.5.5.5.5.5.5.5.5.5.",
"D.U.i.5.5.5.5.5.5.5.5.5.0   9.0.9.0.C.OX_ - = - {.*X;X  q OXOXOXOX-X8X5XD.S.-X8X6X3X  1 U.p.5   K h X j.OX; 5.5.5.5.5.5.5.5.5.5.",
"8.8.5.5.5.5.5.5.5.5.5.5.0 . 0.w.^.E.C.OXoXP.v   + + XX    q OXOXOX-X8X8XK.D.<X8X8X.X  . 5 9.V Z oXa   F.= . D.t.5.5.5.5.5.5.5.5.",
"5.5.5.5.5.5.5.5.5.5.5.5.0   9.0.w.^.2X7X<XOXOXOXy   .X          v -X8X8XA.Z.>X8X    ; W.=.    K OXa G ' X . D.y.t.8.t.t.8.t.3.{ ",
"5.4.5.5.5.5.5.5.5.5.5.5.0   9.0.0.u.2X7X,XOXOXOXq   .X    .       E 3X3X6X6X3X,XX k ; Q.T.S . H f X R ` . Q D.D.D.D.D.D.D.i.$.  ",
"  . 5.5.5.5.5.5.5.5.5.5.g   ,.0.0.u.2X:X+X+X+XOXf   F.  X k X X         h.#X8   z l O < 0.9.S X   c ( O     W $.$.$.$.$.$.$.$.$.",
"[ 5.5.5.5.5.5.5.5.5.5.5.0   e.e.e.u.Q.OX=X5X=XOXl.@ .X  . z Z l o @ o       o @ ~ k u ; =.=.:.S = @ .   o = X /.$.$.$.$.$.$.$.$.",
"] 5.5.5.5.5.5.5.5.5.5.5.0   I.OXOXK.J.OXOXOXOXOXl.u .X  . Z 0.,.Z z q = X   k z 0.k   X q @ 1 -.Z z :   u i   8 $.$.$.$.$.$.$.&.",
"[ 4.5.5.5.5.5.5.5.5.6.6.7   OXOX,X7X!.J.I.OXOXOXl.' oX  . C 0.0.:.~ Z z q : ~ ~ -.: . - ' ( c i q 1 l : ;   $.$.$.$.$.$.$.$.$.$.",
"] 5.5.5.5.5.5.5.5.5.7.4.@   oXOX,X<X>X0.e.I.OXOXG ` oX  X -.0.0.0.0.:.Z x x ,.9.q .   - j.F.OXF   . ; l y   5.1.$.$.$.$.$.$.$.5.",
"5.5.5.5.5.5.5.5.5.5.5.5.P X XXOXOX@X1XT.T.K.K.C.< y P.. X ^ -.0.0.0.0.:.-.-.9.6       - l.OXOXz.) - . - . . 5.5.5.$.5.5.5.5.5.5.",
"5.5.5.5.5.5.5.5.5.5.5.5.O.X h OXOX+X&XE.W.w.0.0.<   L.  . z x -.0.0.0.0.0.0.6 .       - d.F.OXoXOXi   /.5.5.5.5.5.5.5.5.5.5.5.5.",
"5.5.5.5.5.5.5.5.5.5.4.1.O.O.. f OXOXOXK.w.0.0.0.:   d.  . = = * 1 < 1 1 1 < .   D.P   X : t a a a o (.8.5.5.5.5.5.5.5.5.<.] A 5.",
"5.5.5.5.5.5.5.5.5.5.5.O.O.O.  X OXOXOXJ.0.0.0.0.:   `                         D.D.D.X y         . /.4.5.5.5.5.5.5.5.5.5.[     5.",
"5.4.O.O.4.4.4.O.O.O.O.O.O.D.D.D.= a +XoXJ.0.0.0./ ( =       7 W Q D.Y       D.D.D.D.  - y e Q Q D.5.5.5.5.5.5.5.5.5.5.5.t.D.    ",
"5.5.O.O.O.O.O.O.O.O.O.O.O.D.D.D.  t OXOXJ.0.0.2 G =         0 D.i.Y X   . i.D.D.D.D.    . I D.D.D.5.5.5.5.5.5.5.5.D.D.D.i.D.D.D.",
"m 3 O.O.O.O.O.O.V.V.m.O.O.a.n.D.D.D.a oXJ.9.5       D.D.      e D.P     g K.D.D.D.D.i.D.D.D.D.D.D.A.p.y.5.5.5.5.5.D.D.D.D.D.D.D.",
"3   @.O.O.O.O.@.D.D.A.@.@.O.b.K.D.D.O f C.5 f q . D.D.D.      g D.P     g D.D.D.D.D.D.D.D.D.D.D.D.D.D.p.5.5.5.5.5.S.D.D.S.D.S.D.",
"3   D.O.O.O.O.D.D.D.D.D.D.O.n.D.D.D. X$ O   + O D.D.0 7 7 7 7 L D.D.7 O O + D.D.D.D.D.D.D.D.D.D.D.D.D.S.5.5.5.5.5.5.5.5.5.5.5.5.",
"      D.D.D.D.D.D.D.D.D.D.D.D.D.D.D.D.D.D.  D.D.D.D.D.D.D.D.4.5.6.6.5.D.A.D.D.D.D.v.$.$.D.D.D.D.D.D.D.D.D.D.D.t.5.5.5.5.5.5.5.5.",
"          d D.D.D.U.i.D.D.D.D.D.D.D.&.$.$.$.$.m.D.D.D.D.S.5.5.5.5.5.5.5.D.S.D.D.$.$.$.$.&.D.D.D.D.D.D.D.D.D.D.D.D.5.5.5.5.5.5.5.",
"      B V >.D.D.Z.y.y.y.y.D.D.D.D.m.&.$.$.$.$.b.m.y.y.D.y.5.5.5.5.5.5.5.y.Z.m.m.$.$.$.$.$.D.D.D.D.D.D.D.D.y.y.y.y.5.5.5.5.5.5.5.",
"      D.D.D.D.D.5.5.5.5.5.D.D.D.D.$.$.$.$.$.$.$.$.5.5.D.S.4.5.5.5.5.5.5.5.3.$.$.$.$.$.$.$.D.D.D.D.D.D.D.D.5.5.5.5.5.5.5.5.5.5.5.",
"    5.D.D.D.D.5.5.5.7.$.$.$.$.$.$.$.$.$.$.$.$.$.$.5.5.5.5.5.5.5.5.5.$.$.$.$.$.$.$.$.$.$.$.5.5.5.5.5.5.5.5.5.5.5.5.5.5.5.5.5.    ",
"[ 5.5.D.D.D.D.5.5.&.$.$.$.$.$.$.  $.$.$.$.$.$.3.5.5.5.5.5.5.5.5.&.&.$.$.$.$.$.$.$.$...    5.5.5.5.5.5.5.5.5.5.5.5.5.5.5.t.D.    ",
"<.5.5.8.8.y.D.5.& } $.$.$.$.$.$.  $.$.$.$.$.$.&.&.%.& $.1.5.5.&.s % $.$.$.$.&.3.7.%.$.}   & A 5.5.5.5.5.5.5.& ] 5.5.S.S.S.D.q.  "
};
