/* XPM */
static char *_57a219cad7947d7a09c64dc96fbe6deHPAD2JueS941zjAm[] = {
/* columns rows colors chars-per-pixel */
"64 64 253 2 ",
"   c #192A2C",
".  c #17332B",
"X  c #1C2634",
"o  c #142B34",
"O  c #1A2C3B",
"+  c #192A35",
"@  c #1A3334",
"#  c #1B333B",
"$  c #193A39",
"%  c #0D352E",
"&  c #27252B",
"*  c #25372B",
"=  c #232C37",
"-  c #253938",
";  c #37312C",
":  c #493931",
">  c #2F491D",
",  c #1B463C",
"<  c #19482F",
"1  c #294424",
"2  c #3A532B",
"3  c #284539",
"4  c #36493A",
"5  c #275438",
"6  c #345739",
"7  c #374826",
"8  c #28623C",
"9  c #4A4B37",
"0  c #4B5638",
"q  c #53693B",
"w  c #6F633D",
"e  c #1B3842",
"r  c #2A3C4C",
"t  c #263945",
"y  c #313E49",
"u  c #453C43",
"i  c #1B534A",
"p  c #1D4950",
"a  c #26484A",
"s  c #354D46",
"d  c #295849",
"f  c #385245",
"g  c #2D4352",
"h  c #2C4C5C",
"j  c #294B55",
"k  c #314C5C",
"l  c #334955",
"z  c #255354",
"x  c #2C525B",
"c  c #2C5C5C",
"v  c #275559",
"b  c #335C5E",
"n  c #34565B",
"m  c #28655A",
"M  c #36685A",
"N  c #2C785C",
"B  c #33765C",
"V  c #3A704D",
"C  c #324C61",
"Z  c #2D5C61",
"A  c #2B5762",
"S  c #325B65",
"D  c #355965",
"F  c #2D4C61",
"G  c #2D6365",
"H  c #2E6D6D",
"J  c #2C6667",
"K  c #336364",
"L  c #336B65",
"P  c #33656A",
"I  c #346C6D",
"U  c #3A676A",
"Y  c #2A7566",
"T  c #2C7B65",
"R  c #2D736C",
"E  c #2C796A",
"W  c #277566",
"Q  c #32716D",
"!  c #347C6D",
"~  c #367868",
"^  c #336E71",
"/  c #396871",
"(  c #2D7271",
")  c #327171",
"_  c #347D72",
"`  c #2E6F71",
"'  c #494646",
"]  c #465B47",
"[  c #4E5151",
"{  c #6A5650",
"}  c #496549",
"|  c #466553",
" . c #5B765B",
".. c #50704B",
"X. c #776559",
"o. c #6E754E",
"O. c #48726D",
"+. c #787B61",
"@. c #69746A",
"#. c #927465",
"$. c #836D55",
"%. c #3C955C",
"&. c #37945E",
"*. c #398956",
"=. c #2D8367",
"-. c #33846C",
";. c #358C6D",
":. c #3B8C6C",
">. c #388866",
",. c #359365",
"<. c #3A9365",
"1. c #3D9A64",
"2. c #35936B",
"3. c #3A936C",
"4. c #3E9B6A",
"5. c #36986B",
"6. c #358372",
"7. c #3A8471",
"8. c #358A72",
"9. c #3A8D73",
"0. c #3B8A7A",
"q. c #369271",
"w. c #3A9272",
"e. c #3B9B71",
"r. c #429C5A",
"t. c #5E8355",
"y. c #6A8559",
"u. c #728F56",
"i. c #56AC5D",
"p. c #5AB35E",
"a. c #57B55E",
"s. c #49A45F",
"d. c #67AE59",
"f. c #7CA65E",
"g. c #7DA85E",
"h. c #76A55D",
"j. c #64B35B",
"k. c #75B45A",
"l. c #438B65",
"z. c #439C64",
"x. c #429C69",
"c. c #449568",
"v. c #438874",
"b. c #459A73",
"n. c #52986A",
"m. c #6B8C68",
"M. c #79886A",
"N. c #6D946C",
"B. c #6C9467",
"V. c #72946B",
"C. c #759B6B",
"Z. c #7A9B6E",
"A. c #799867",
"S. c #668F75",
"D. c #698E73",
"F. c #6A8D7A",
"G. c #758975",
"H. c #659173",
"J. c #6C9273",
"K. c #6A9079",
"L. c #749572",
"P. c #799973",
"I. c #4BA46A",
"U. c #49A667",
"Y. c #54AC64",
"T. c #5BAE63",
"R. c #53AC6C",
"E. c #58A86A",
"W. c #57B265",
"Q. c #5BB363",
"!. c #56B26A",
"~. c #5BB26B",
"^. c #4DAA72",
"/. c #4CA674",
"(. c #58AA72",
"). c #59B274",
"_. c #4FB06D",
"`. c #76A665",
"'. c #7AA665",
"]. c #76A865",
"[. c #7CA962",
"{. c #76A669",
"}. c #79A569",
"|. c #7BA968",
" X c #62B562",
".X c #7DA272",
"XX c #6FB569",
"oX c #7EC569",
"OX c #8C8E57",
"+X c #84AD5D",
"@X c #89AE5D",
"#X c #87A45D",
"$X c #98AA5D",
"%X c #86B15D",
"&X c #8CB25C",
"*X c #8CB356",
"=X c #95B756",
"-X c #9BB655",
";X c #96B856",
":X c #99B856",
">X c #93B65B",
",X c #99B65A",
"<X c #95B959",
"1X c #9BB95A",
"2X c #A3B95B",
"3X c #ABBA5D",
"4X c #A5B65B",
"5X c #B3BA5E",
"6X c #BCBB5F",
"7X c #839C6B",
"8X c #889966",
"9X c #9A9D66",
"0X c #849975",
"qX c #888F6F",
"wX c #83AC62",
"eX c #8AAC63",
"rX c #87A668",
"tX c #93AD63",
"yX c #98A969",
"uX c #8CB261",
"iX c #86B161",
"pX c #94B463",
"aX c #9CB463",
"sX c #9AB46A",
"dX c #8AA674",
"fX c #97AA72",
"gX c #94B775",
"hX c #A3A869",
"jX c #A3B465",
"kX c #ABB464",
"lX c #ACBA62",
"zX c #A4B26A",
"xX c #ABB56C",
"cX c #AAB969",
"vX c #B3B665",
"bX c #B4BA64",
"nX c #BCBA63",
"mX c #B3B96B",
"MX c #BBBA6A",
"NX c #B6B665",
"BX c #A6AB75",
"VX c #AAB574",
"CX c #B7B775",
"ZX c #A1806D",
"AX c #C0BB65",
"SX c #89CB75",
"DX c #94C66C",
"FX c #BAD46C",
"GX c #A8D574",
"HX c #B5D574",
"JX c #AACD70",
"KX c #8A958D",
"LX c #ABB089",
/* pixels */
"<X<X<X<X<X<X;X;X,X,X;X;X;X;X;X;X;X;X<X<X:X:X<X<X:X<X:X:X;X<Xu.FXFXeX2 aX;X<X;X;X1X1X:X1X<X,X<X;X;X<X;X:X2XlXlX-X:X<X<X:X<X<X<X<X",
"@X%X@XeX@X%X&X*X<X;X<X<X;X;X;X<X;X;X:X<X<X;X<X<X:X;X<X<X=X#Xu.FXFXJX1 u.>X;X<X,X:X;X<X:X;X;X;X;X;X:X=X:X1X4X4X-X;X;X;X<X;X1X<X;X",
"'.'.`.`.'.'.wX@X=X<X>X>X&X&X>X&X>X=X<X;X;X<X:X;X<X<X<X<XaX> sXFXFXHX..o.1X<X>X,X:X;X<X,X;X;X;X;X<X;X;X;X;X;X;X;X=X,X;X;X;X;X;X;X",
"`.`.].`.`.`.`.[.g.pX%Xg.[.[.g.[.[.@X<X;X:X:X=X<X<X1X-X<Xy.u.HXFXFXHXgX> pX;X;X:X,X:X;X<X=X<X>X<X,X<X<X<X;X;X<X<X<X<X<X<X;X;X;X;X",
"`.`.`.`.`.{.`.}.[.wXwX`.{.`.].].}.[.uX=X=X,X>X;X1X2X3XjX..k.HXGXFX<XHX> tX1X;X<X>X;X;X>X:X;X<X>X,X:X<X<X;X:X>X&X&X%X%X&X=X<X;X;X",
"}.}.}.}.}.}.}.}.'.[.[.`.{.].`.`.`.`.+X%X>X1X>X;X2X3X5XzXt.HXDXJXGXk.GXB.> sX,X>X;X;X;X;X<X;X=X>X;X:X:X<X:X,X>X+Xg.[.wX+X&X<X;X;X",
"`.`.`.`.`.`.`.`.`.`.`.}.`.`.`.`.`.].'.eX>X1X-X-X4XnXNX7 DXJXk.DXd.d.d.SX6 u.aX-X1X-X:X>X<X<X>X>X>X<X<X<X;X<XuX[.`.`.`.[.%X>X<X;X",
"`.`.`.`.`.`.].`.`.`.`.}.}.`.`.`.`.`.[.eXaX3XlX3XbXMXLX1 DXk.XXd.SXd.p. Xl.< VX5X5XbX3X>X+X[.wXwX+X&X<X<X&X@X[.'.`.}.}.`.[.+X*X;X",
"@XwXwX[.'.}.`.`.`.`.`.}.}.`.`.}.}.`.[.eXtXaXaXaXkXCX* XX Xp.j.SXoXp.r.Q.~.l.q MXnXNXaXeX'.`.`.`.[.wXuX%XwX[.[.wXwXwX[.}.'.f.wX&X",
";X<X>X%X[.}.}.{.}.`.`.[.[.[.g.[.`.`.`.}.[.[.[.g.eXy...T.Q.T.Q.j.SXd.%.*. X(.| yXkXxXwX'.g.[.g.[.`.`.'.`.`.[.@X>X>X>X+X[.`.`.'.wX",
";X;X<X>XuX[.`.{.`.'.wX&X>X>X>X&XwX`.{.`.`.`.`.[.}.6 i.Q.W.%.T.j.SXj.~.V *.R.>.6 0XrX[.@X*X>X&XiX[.`.].[.wXuX*X;X<X>X>X&XwX'.`.'.",
"<X<X:X<X&X[.`.`.`.[.@X<X;X;X;X<X@X[.[.[.[.[.[.Z.V l.Q.W.*.Y.Q.j. Xp.p.I.5 M c.>.8 m.rX%X<X>X>X&XwX[.'.[.eX>X:X:X;X<X;X=X%Xg.[.[.",
";X;X;X<X&X[.`.}.[.wX&X<X:X:X;X>X&X@X@X@XwXA.m.< B R.E.l.5 T.Q.p.Q.a.Q.~.c.o , :.l.5 dX*X;X;X<X=X@X@X@X@X&X>X:X;X;X;X;X>X>X@XwXwX",
"=X;X;X;X&X[.'.'.g.>X<X:X;X;X<X<X>X<X=X<XpX> d :.b.n.5 % n.~.z.<.R.U.z.Y.^.K a - 3 y.<X<X<X<X<X<X<X<X>X>X>X;X;X<X<X<X<X<X<X>X>X>X",
";X;X;X;X=X%XuXuX%X<X;X:X;X<X;X:X;X<X;X=X,XfX] . %   o B (.N -.R.%.I.q.,.x.0.L q pX<X=X&X@X@X@X%X>X1X=X;X;X;X<X<X&X@X@X@X+X@X@X&X",
":X;X,X<X;X>X,X<X>X;X:X;X;X<X;X>X&X@XeX@XeXeXdXP.@.  b (.:.Y :.~.r.<.3.2.^.2.T ] uX>X&XwX`.`.`.+XuX>X>X&X&X&X&XuXwX`.}.}.}.`.'.wX",
">X,X<X<X>X>X=X>X<X<X;X;X:X-X-X,XA.V.N.B.B.N.B.G.f c -.<.;.:.-.U._.<.2.2.2.2.;.d ..[.'.].`.}.}.[.[.uX&X[.[.[.[.[.'.`.`.`.`.`.`.[.",
"<X&X[.'.'.[.wX*X;X<X;X,X2X3X3XjXyXyXdXZ.L.S.K.a a ! q.<.2.-.3.,.5.,.2.,.,.2.q.Q , m.|.'.`.}.}.'.[.wXwX`.}.{.}.`.`.`.`.`.`.`.`.`.",
"=XeXA.J.J.V.}.@X<X;X:X1XlXbX5XbXvXkXzXrXZ.D.F.@ m ;.&._.,.2.2.e.2.2.;.=.3.2.2.6.m 3 .X}.`.'.`.`.[.'.].`.`.`.`.'.`.}.`.`.`.`.`.`.",
"eXrXN.S.S.N.C.wXuX<X-X4XNXNX6XAXNXMXvXyX0XKXe Q ;.<.~.^.,.2.<.R.&.2.,.>.0.,.R.2.:.a . } .X}.].`.'.`.}.'.`.}.}.].`.}.`.`.`.`.}.}.",
"N.N.N.D.D.J.H.N.A.&X3X5XnXnXnXnX6X6XNXBX] @ Q :.%.~.(.<.2.3.<.i.W.1.r.).T 3.Q.1.<.-.K c $ - Z.}.}.}.}.'.`.`.`.'.`.`.`.`.`.`.'.`.",
"D.V.dXdX7XN.S.S.V.sXlXnXnXnXnXnXAXOXM.* M Q 7.c.Q.Y.%.>.<.!.%.Q.Q.i.Q.Q.c.T W.z.<.z.% z K * fXeX[.{.'.}.[.wX@XiX[.].`.'.[.wXwX@X",
"Z.rXcXmXzX8XZ.P.7XxXNXnXNXNXnXnXMX9 - a P z 5 Q.Q.V , w.z.Q.T.Q.p.i.Q.Q.Q.x.r.W.s.^.l.d o.hXNXkXeX|.`.'.wX=X<X<X@Xg.wX+X%X<X<X;X",
"xXvXnXnXNXvXxXxXvXnX6X6XnXnXnXNXNXhX0 * = 3 H.E. .d ~ 2.U.p.Q.Q.p.i.Y.T.Q.W.<.E.~.I.,.M OXMXnXbXcXeX].[.wX=X;X<X>XpXpX>X>X<X:X;X",
"nXnXMXMXNXnX6XMXnX6XMXNXNXMX6XnXkXmXkXBX7 2 5 . a 6.w.,.Q.Q.R.z.Y.R.c.N (.a.U.<.z.e.2.7.3 BXvXnXNX$XeXeXuX>X;X;X;X,X;X:X;X:X:X:X",
"nXnXMXnXnX6X6XnXnXnXMXMXMXnXAXnXsXtXtXtXfX0X# I ! w.<.~.W.<.<.3.<.W.~.T c.Y.Q.4.3.3.5.3.~ 3 9XAXNXkXjXjX1X,X:X:X:X;X;X;X:X;X;X;X",
"MXMXnXnXnXnXnXNXnXnXnXnXnXnXnXbXyX}.[.[. .. L -.3.1.R.U.<.=.x.x.3.U.W.<.-.>.I.x.:.m 9.2.;.Y 4 BXCXNXbX5X3X4X-X-X:X;X;X;X;X<X<X;X",
"MXnX6X6XnXNXnXnXMXnXnXnXNXNXkXeXwX}.`. .$ L :.3.,.x.z.3.>.~.Q.!.1.<.R.R.5.;.2.3.2.T i M ! 6.Q M } $XMXnX5XbX5XlX1X;X;X;X;X;X;X;X",
"zXkXbXnXvXjXjXjXjXaXaXjXjXaXtX[.'..XP.. I -.;.2.w.3.w.3.!.Q.p.Y.<.3.5.x.1.3.2.;.w.2.~ . x I I U s OXNXMXMXMXbX3X2X:X;X;X;X;X;X;X",
"wXtXcXbXjXwX`.[.[.'.`.[.g.[.[.{.P.a a I _ 6.W q.3.7.T ).Q.p.Q.1.2.4.<.2.2.2.3.T M 9.0.p +   . ..#XlXNXnX5XnX5X4X:X<X;X;X;X:X;X<X",
"].[.eXtXeX[.}.`.`.`.}.}.`.`.C.5 , U I H L K m 6.T B E.Q.Q.p.!.,.I.<.,.3.:.T 8.9.>.% K I d * dXaX<X1X2X2X4X4X1X:X;X;X;X;X;X;X;X;X",
"].[.[.[.'.'.'.`.`.`.`.`.}.`.C.* n Z Z a + e R R Y n.Q.W.Y.W.1.1.R.2.<.2.N w.R 6.2.l., , ~ v.- 2 >X=X>X,X1X,X>X>X:X-X;X;X;X;X<X;X",
"+X+XwX'.`.}.`.].{.`.'.'.`.}.}.B. .- - o K Q 6.T c.~.Q.z.1.x.2.b.1.2.2.2.9.E R E ;.w.v.c t + * rX&X*X&X&X&X&X&X&X=X=X=X=X=X;X;X;X",
"=X=X>X+X'.`.`.`.'.[.`.`.{.`.`.].[.P.- z E 9.>.(.Y.r.U.R.3.2.2.,.2.2.,.2.2.9.T T R w.3.~ h r * |.[.[.'.h.'.f.[.+X%X<X<X>X;X<X;X;X",
";X;X=X=X&X%X%XuX&X%XwX`.].`.}.}..X} # L >.2.,.^.<./.R.<.2.2.,.5.2.2.^.,.2.;.:.-.W -.w.v.z k o m.}.}.`.{.`.`.'.[.uX1X>X=X;X;X;X;X",
"1X:X=X=X&X&X&XuX&XuXwX`.'. .] s , K E 9.9.2.;.2.5.2.;.=.5.2.,.;.9.;.1.4.2.2./.<.,.;.2.;.! m ) z 6 A.eXeXeXeXwX[.%X;X;X;X=X;X;X;X",
"<X=X>XwX[.[.[.[.[.[.`.`.}.] o U I v.9.9.Y Y -.3.2.9.W 0.2.2.2.8.E T <.^.,.,.4.x.,.2.2.N d v.` ( I 3 fXxXbXbXjX#X%X;X;X;X;X;X;X;X",
"&X&X&XwX`.`.].].{.`.`.{.`.A.] * @ # z i R 6.w.,.,.=.;.2.2.2.5.2.R E >.!.s._.r.!.U.3.2.9.m $ x I Q K * o.MXMXNXtX>X:X;X;X;X<X;X;X",
"wXwX[.[.}.}.].].`.}.{.`.'.[.wXdX@.= j L 9.2.U./.3.2.2.U.&.R.5.2.E 6.<.Y.Q.Q.Q.Q.W.4.:.N ! K # o s ..o.CXMXMXnXcX1X;X;X;X;X;X=X=X",
"[.f.f.[.'.'.g.h.f.'.].'.h.rX0X4 + C v ! 3.&.).,.2.,.&.~.r.R.,.2.0.=.5.z.W.%.Q.T.p.U.3.< v.T L K   OXMXAX6X5XnXnX3X1X;X;X<X;X;X;X",
"&X&X&X&X&X&X&X&X&X*X>XrXy.f = l x m 0.w.b./.<.2.2.<.!.I.R.,.;.<.w.T 2.x.).<.U.z.W.~.:.~ e b n l 4 9XnXnXNXnX6XnX5X3X1X:X;X<X;X;X",
";X;X;X;X;X;X;X<X<X;XaX7 M L I ! 7.b.-.! R ! ! 3.<.!.I.<.I.2.N 9.3.2.2.3.U.2.;.<.U.!.2.7.x k - LXCXMXMXMXMXMXMXnXnXbX1X=X;X;X;X;X",
";X<X>X>X=X>X>X=X=X;X<X6 n P Q Q E ! Q Z p Z 7.c.R.Y.<.w.5.3.c 0.5.5.3.2.<.3.E ;.3.U.2.9.c h r @.hXNXbXbXmXlXbXnXNX5X2X-X-X-X-X-X",
";X<X<X;X;X;X<X;X;X;X;XpXA.  # $ e o O l h J <.(.R.<.:.=.3.7.Z -.<.<.3.2.3.2.6.R 7.w.q.3.Q h k = +.yXwXwXwX@XtXNXMX6X5XbX5X5XbXbX",
";X;X;X;X;X;X;X;X<X<XaXpXrX  X X X l C h b b.1.<.w.v.z v.>.z I T 3.I.3.m :.w.8.R R E :.3.0.x h + 9 dX].`.[.'.eXcXnXnXnXnXnXnXnXnX",
"<X;X;X<X;X;X;X:X>Xq * * = k g = g C F x ! /.x.:.m z v.w._ R R R ;./.3.m i v.9.Y ( ) E Y Y I h C t ..Z.}.}.}.wXsXbXAXnXMXnXnXnXnX",
";X;X;X;X;X;X=X:X;XtX} y r O t k k D O.O.~ m c h D 7.7.T -.! Q Q T 2.2.! P v T ! ) P ^ H I R S k k n 3 f  .m.y.7XaXmXNXNXNXNXNXNX",
";X;X;X;X;X;X;X;X>X,XgX@.X r l S U x x x h h k k h J Y 2.8.R R ! ;.-.;.9.R ) R R R G ^ ^ p P ^ x h Z R U % @ . m.wXeXtXtXtXtXtXtX",
";X;X<X;X;X;X<X<XtX..* $ S P I Q J h k h k h h S I Y 0.0.Q I ( R 6.E =.w.T Q ) ( R I v I v e n / I J Q ^ U a 4 C.'.|.`.`.`.`.`.`.",
";X;X:X;X;X;X;X=X#X$ O.Q Q R R ^ / k O h v P ) ^ Q R Y R I v ) ( Y T Y W 7.R ) R H R H J Q / o o b b # + 3 P.}.`.|.`.`.`.`.`.`.`.",
";X;X;X;X;X;X;X=X>Xo.3 c P K A x g t r k P ^ ( Q R Q P ( I x Q R ) Q Q ) H R ) Z K ) H R ! R z X = y y 4 V.`.}.`.`.'.`.`.`.`.`.`.",
";X;X;X;X;X;X;X<X>X;XpXt.4 4 4 + X g h h F C k S S x x ^ A ^ H Q R H Q H H R I J x P R 0.-.:.;.L a # + | B.`.{.`.[.`.}.`.`.`.`.`.",
";X;X:X<X<X<X<X;X<X;X,X,XpXsX0X  @ b I U n k h h h k P H c ) A R R G / v ^ Q Q Q H j Q T w.;.w.w.0.! P . Z.'.].'.'.`.[.[.[.[.[.[.",
";X;X,X,X<X<X<X<X<X:X>XsX1 s - n U Z A x h h A l t A I I I K h ) ) x h h I H ^ ) I z c I T >.6.R ^ K 5 7XeX|.{.`.h.[.%X>X>X*X=X>X",
";X<X<X;X;X;X&XwXrX'.'.7X3 $ U I Q I P P I I j O e x ^ I x e x ^ A a C k e / x ^ R H S o U L L e @ 2 sX=X*XwX}.`.+X%X=X<X;X;X<X;X",
";X<X<X>X@XeXrXV.H.H.H.H.S.| - a K G K K z o X X r k h h g X D P h t k D t g h P ) ) / g + X + X ] cX1X<X&XwX'.g.%X<X<X<X<X;X<X<X",
":X;X>Xf.V.J.J.J.D.D.D.J.K.S.S. .| 3 * * @.KX[ n h h h k = r k h t t h ^ h O t h x S G K I K | 4 9XbX3X,XuXwX`.'.%X<X;X;X;X;X:X;X",
"=X=XuXC.D.D.J.V.P.P.P.P.J.J.S.D.K.P.dX] l a b Q ^ P k = # P S g = u r I P x g e r + r D Z x * 9XMXnX5X2X>X@XwX'.%X=X<X=X;X;X;X=X",
"=X&X}.J.J.H.P.7XfXyXyXrXV.J.K.K.H.N.Z. .l x v ^ ) b O O z ^ I = & [ & b I I ^ ^ U     & ; 9 o.MXnXnXbX3X4X4XpXg.wXuX=X<X<X;X;X;X",
"pXwXN.D.N.V.7XjXmXvXNXxX7XV.V.V.D.H.H.D.O.t g g @ = @.X b U e u ; { [ = a U / x 3 VXCXMXCXMXnX6X6XnXnXnXnXNXcX#Xg.+X=X<X;X<X<X;X",
"V.N.H.D.Z.yXkXvXMXnXnXbXjXjXzXfXA.D.H.S.J.D.G.0XqXKX; & y X ' #.: #.; u = X   * 8XnXnX6XnXNXMXMXnXnXMXnXnXnXNXcX>X&X<X<X;X;X;X;X",
"H.H.S.D.0XmXNXnXMXnXnXnXMXMXnXmXyX8XdXP.J.J.L.+.+.' u & X.& X.#.{ #.; ' ; +.M.BXvXMXnXnXnXnXMXMXMXnXnXnXnXnXnXnX3X1X;X;X;X;X;X;X",
"L.J.D.S.Z.xXbXnXnXnXMXMXMXMXnXnXNXNXmXyX7X7XBXhXhXX.; : X.& { { : X.X.: X.{ qX9XMXnX6XnXnX6X6X6XnXnXMXMXnXnXnXnX3X:X1X1X1X:X;X;X",
"fXdXN.S.L.rXyXkXNXnXMXNX6X6XAXAXnX6XnXkXjXhXNX6XMXOX& $.: & { X.{ 9 X.{ : ; +.+.VXnXnXMXMXMXnX6XnXnXNXnXNXnXnXnX5X3X3X4X2X:X;X;X"
};
