/* XPM */
static char *_33d26f519fd42bfab25676e49b8a9bfAXZvAIEdy0bhjHVi[] = {
/* columns rows colors chars-per-pixel */
"64 64 83 1 ",
"  c #3B3E37",
". c #3E3E3A",
"X c #4F3530",
"o c #4C3837",
"O c #533535",
"+ c #533538",
"@ c #5B373D",
"# c #563A3F",
"$ c #583839",
"% c #3B4039",
"& c #A73E3E",
"* c #A93D3E",
"= c #9D433E",
"- c #A3413F",
"; c #A8403C",
": c #9F3F43",
"> c #A43E42",
", c #A93D40",
"< c #9D4243",
"1 c #9A4844",
"2 c #9E454D",
"3 c #984848",
"4 c #9E524D",
"5 c #9E5250",
"6 c #A34142",
"7 c #A14F51",
"8 c #A25956",
"9 c #A45B5B",
"0 c #9B605D",
"q c #A5615E",
"w c #AD6465",
"e c #AC6865",
"r c #A26C68",
"t c #AF6E6A",
"y c #B16664",
"u c #B16E6A",
"i c #AE7471",
"p c #AD7F7A",
"a c #B17070",
"s c #B67A75",
"d c #B97875",
"f c #B77D79",
"g c #BA7979",
"h c #AD8079",
"j c #D5B8AE",
"k c #DBB9AD",
"l c #DEB6B1",
"z c #D5BFB4",
"x c #D9BEB1",
"c c #DCBCB1",
"v c #DCBCB3",
"b c #D9BFB4",
"n c #DFBEB6",
"m c #DFBEB8",
"M c #E4BAB5",
"N c #CFC3B2",
"B c #CFC4B3",
"V c #CFC3B4",
"C c #CFC4B7",
"Z c #CFC6B7",
"A c #CCC8B4",
"S c #CDC8B6",
"D c #CCC7B8",
"F c #CDC6BB",
"G c #CEC7BB",
"H c #CBC8B8",
"J c #CEC8BB",
"K c #D4C3B2",
"L c #D0C4B3",
"P c #D2C1B4",
"I c #D0C3B6",
"U c #D4C2B5",
"Y c #D1C6B7",
"T c #D3C6B7",
"R c #DBC2B2",
"E c #DAC1B4",
"W c #DEC0B4",
"Q c #D2C4B8",
"! c #D3C5BB",
"~ c #D1C7BB",
"^ c #D7C6B9",
"/ c #D6C7B9",
"( c #DDC1B8",
/* pixels */
"#@$+O++++OO++++OO+++++O++X...%.++OOOOXXXXXXXXXXXXXXXXXXXXXXXXOo ",
"&*&&&&&&&&&&&&&&&&&&&&&&&1P~~GY<,>&&&&**********************,,<U",
">*****&&&&&&&&&&&&&&&&&&*1U~~YK<*,,,,,,,>,,,,,,,,,,,,,,,,,,>&*<L",
">&*****&&&&&&&&&&&&&&&&&&1LGJ~K<*******&&&***&&&&&&&&&&&&&&&&*<L",
"&&*&&*&&&&&&&&&&&&&&&&&&&1NGG~U<*******&&&&**&&&&&&&&&&&&&&&&*=Y",
"*-*&&&&&&&&&&&&&&&&&&&&&&1NGG~U<*&&&&&&&&&&&&&&&&&&&&&&&&*&&&*=/",
"*&*&&&&&&&&&&&&&&&&&&&&&&1NGG~U<*&&&&&&&&&&&&&&&&&&&&&&&&&&&&*=/",
"*&*&&&&&&&&&&&&&&&&&&&&&&1NGG~U<*&&&&&&&&&&&&&&&&&&&&&&&&&&&&*=/",
"*&*&&&&&&&&&&&&&&&&&&&&&&1NGG~U<*&&&&&&&&&&&&&&&&&&&&&&&&&&&&*=/",
",>*&&&&&&&&&&&&&&&&&&&&&&1NGG~U<*&&&&&&&&&&&&&&&&&&&&&&&&&&&&*=/",
",&*&&&&&&&&&&&&&&&&&&&&&&1NGGYK<*&&&&&&&&&&&&&&&&&&&&&&&&&&&**=/",
"*&*&&&&&&&&&&&&&&&&&&&&&&1NGG~U1&&&&&&&&&&&&&&&&&&&&&&&&&&&&**=/",
"*&*&&&&&&&&&&&&&&&&&&&&&&1NGG~U<*&&&&&&&&&&&&&&&&&&&&&&&&&&&&*=/",
"*&*&&&&&&&&&&&&&&&&&&&&&&1NGG~K<***&&&&&&&&&&&&&&&&&&&&&&&&&&*=/",
"*&*&&&&&&&&&&&&&&&&&&&&&&1VGZYP<***&&&&&&&&&&&&&&&&&&&&&&&&&&*=/",
"&************************3bZZZP<,*****************************=(",
"fsdsssssssssssssssssssssdp~ZZGPhgssssssssssssssssssssssssssssdpZ",
"ZZZZGGGGGZZZZGGGZZZGGGZZZZGGGYYGZZZZZZGGGZZZGGZZGGZZZGZZZGZZZGGG",
"ZZZZGGGGGGZZGGGGZZZGGGGGZZZGGYYZGZZGZGGGGGZZGGZZGGZZZGZZZGZZZ~~G",
"Z~ZZ~~ZZGGYYYYYYZG~~~~~~YYY~~YYY~~~~~~~~~~ZZGZYYGG~YYYGG~~YYYZGG",
"Z~~~YYZZGZ~Y~~YYZG~~~~YY~~~~~~~~~~~~~~~~~~ZGGGYYGG~~GGGG~~~~~~~~",
"nxkkx~ZZGZjlcccccccccccccccccccccccccccxlUYYGGYREWcccccnnncccccc",
">6&&5~~~~B<>6666666666666666666666666666>qYZGGE<-->>-6>>>>>>>>>>",
"*&**5~~~~P<&&&&&&&&&&&&&&&&&&&&&&&&&&&&**qSZGGb6;;**************",
",&**4Z~~Jz<&&&&&&&&&&&&&&&&&&&&&&&&&&&&**qSZ~Gx6****************",
"&&**4GG~ZU<&&&&&&&&&&&&&&&&&&&&&&&&&&&&**qSZ~Gx6&&**************",
"&&**5GG~ZU<&&&&&&&&&&&&&&&&&&&&&&&&&&&&**qJZ~~x6&&&&&&&&&&&&&&&&",
">&**4GG~ZU<*&&&&&&&&&&&&&&&&&&&&&&&&&&&**qJG~~x6&&&&&&&&&&&&&&&&",
",>**4SZYGU<*&&&&&&&&&&&&&&&&&&&&&&&&&&&**qJGZGx6&&&&&&&&&&&&&&&&",
",>**4SZYGU<*&&&&&&&&&&&&&&&&&&&&&&&&&&&**qJGZZx6&&&&&&&&&&&&&&&&",
",>**4SZYJb<*&&&&&&&&&&&&&&&&&&&&&&&&&&&**9JGGGx6&&&&&&&&&&&&&&&&",
",>**4GGYJb<*&&&&&&&&&&&&&&&&&&&&&&&&&&&**9JGGGx6&&&&&&&&&&&&&&&&",
",>**4GZ~Jb<*&&&&&&&&&&&&&&&&&&&&&&&&&&&**9JGGGx6&&&&&&&&&&&&&&&&",
",>**4GZYJb<*&&&&&&&&&&&&&&&&&&&&&&&&&&&**9JGGGx6&&&&&&&&&&&&&&&&",
",&**4GZYJb<*&&&&&&&&&&&&&&&&&&&&&&&&&&&**9JGZZx6&&&&&&&&&&&&&&&&",
",&**4~Z~Jb<*&&&&&&&&&&&&&&&&&&&&&&&&&&&**9J~ZZc6&&&&&&&&&&&&&&&&",
">*&,7~G~Jz<******************************9~~Z~c6&&&&&&&&&&&&&&&&",
"uyeeiGG~GUreeeeeeeeeeeeeeeeeeeeeeeeeeeeyypY~GGKewwwwwwwwwwwwwwww",
"G~ZZZZGGHHGGZGZZZZZZZZZZZZZZZZZZZZZZZZZZZZZGGGGGGGZZGGZZZGZZZZZZ",
"Z~GGZGGGBB~~~~YYYYYYYYYYYYYYYYYYYYYYYYYY~YZZGGZY~~YY~~YYY~YYYYYY",
"ZGZZ~~~~YY~~~~~~~~~GG~YZZYYZG~~~~~YY~~~~~~YYY~~~~~~~~~ZZGGZYGGGG",
"ZGZZSJJGHHHHHHHHHHJGGGZZGZZSJHHHHHHHHHHHHHHHHHHHHHHHHHZZGZZZZ~~G",
"cxcxkkxxxxxxkkxxxklcbZZZG~jxxxxxxxxxxxxxxxxxxxxxxxxxxxxxxnZZGH~M",
"::&&&&&>>>&&&&&&&&>>tZZZGl<&&&>>>>&&&>>>&>>&>>>>>>>>&>&&&9ZZZZE<",
",&&&***********&&&*>uBZZGk-&&&&&&&&&&&&&&&&&&&&&&&&&&&&&*8ZGZZR<",
",&**,,*******,&&&>*6uZZGGk6&&&>&&&&&&&&&&&&&&&&&&&&&&&&&*8ZGZZE<",
",>*&&&&&&&&&&>&&&&*&uZ~ZZk6&&&&&&&&&&&&&&&&&&&&&&&&&&&&&*9ZZYZc<",
",>*&&&&&&&&&&&&&&&**uZ~ZZk-&&&&&&&&&&&&&&&&&&&&&&&&&&&&&,9ZYYZn<",
",>*&&&&&&&&&&&&&&&**uZ~GGk-&&&&&&&&&&&&&&&&&&&&&&&&&&&&&*8ZYYZn<",
",>*&&&&&&&&&&&&&&&*&tZYZZk=&&&&&&&&&&&&&&&&&&&&&&&&&&&&**9ZY~Zn<",
",>*&&&&&&&&&&&&&&&*&tZYZZk-&&&&&&&&&&&&&&&&&&&&&&&&&&&&*,9Z~~Zn<",
",>*&&&&&&&&&&&&&&&*&uZ~GZk-&&&&&&&&&&&&&&&&&&&&&&&&&&***,9Z~~Zn<",
",>*&&&&&&&&&&&&&&&*&uZYZGk-&&&&&&&&&&&&&&&&&&&&&&&&&&***,9Z~~Zn:",
">&*&&&&&&&&&&&&&&&*-uZYZGk=&&&&&&&&&&&&&&&&&&&&&&&&&&&&*,8ZYYGn:",
">&*&&&&&&&&&&&&&&&*-uZYZGk-&&&&&&&&&&&&&&&&&&&&&&&&&&&&&,8ZYYZn:",
">&*&&&&&&&&&&&&&&&*-uZ~ZGk-&&&&&&&&&&&&&&&&&&&&&&&&&&&&&,9ZY~Zn:",
">&*&&&&&&&&&&&&&&&*-uZ~GGk-&&&&&&&&&&&&&&&&&&&&&&&&&&&&&,9G~YZn=",
",&*&&**************&uZYZGk*&&&&&&&&&&&&&&&&&&&&&&&&&&&**,9ZYYZn:",
"><><<::::::::::::66<aZYZZk1>>>>>>>>>>>>>>>>>>>>>>>>>>>6660GYYZm2",
"GHHSBBBZGGHHBBZZZGGGZZ~ZZZYZGSSSSHHZGZSZSSHHGGSZSSHHZGSBZZZGYYHG",
"P~~~~~GG~~YYYYGGGZ~~~GZZY~~~~~~~~YY~~~~~~~~~~Y~~~~YY~~~~~GGZZZGG",
"ZZZZGGZZGGZZZZZZZZGGZGZZHHHHGZZZZZZGZZZZZYGGZZZZZZZZZZZZZZGGZGGG",
"ZZYYGG~~~~~YYY~~Y~~YYYYY~~~~Y~YY~~~~ZYYY~GGGYYYY~~~~YYYYY~~~Y~~~",
"ZZZG~PLLPPPPPPPPPPPPPPPPPPPPPPPPPPPY~~Z~SZYPYYYYYYYYYYYYYYYYYYLY"
};
