/* XPM */
static char *bf777f9275584452f355dcc8b05c19fbB85a7lIdz8Xr7kWk[] = {
/* columns rows colors chars-per-pixel */
"64 64 120 2 ",
"   c #36363F",
".  c #373741",
"X  c #383742",
"o  c #363A42",
"O  c #393C44",
"+  c #3D3C49",
"@  c #413E4E",
"#  c #364047",
"$  c #3B4346",
"%  c #36444B",
"&  c #3B4A4C",
"*  c #374C51",
"=  c #375156",
"-  c #3C5352",
";  c #375559",
":  c #375A5D",
">  c #3E5D59",
",  c #3F625C",
"<  c #375F61",
"1  c #396262",
"2  c #3E6A64",
"3  c #42414E",
"4  c #414D4A",
"5  c #474654",
"6  c #484656",
"7  c #494A54",
"8  c #4B455B",
"9  c #4B4A5A",
"0  c #52525F",
"q  c #4F4D60",
"w  c #524F63",
"e  c #535164",
"r  c #575A66",
"t  c #565368",
"y  c #59566D",
"u  c #575A68",
"i  c #5B5E6B",
"p  c #5B5071",
"a  c #5E5B73",
"s  c #615D76",
"d  c #635B7A",
"f  c #416C63",
"g  c #5D6069",
"h  c #427166",
"j  c #437669",
"k  c #467969",
"l  c #497D6A",
"z  c #5F6272",
"x  c #616165",
"c  c #61656D",
"v  c #68686B",
"b  c #616571",
"n  c #656B75",
"m  c #65637B",
"M  c #656879",
"N  c #707072",
"B  c #4D816B",
"V  c #51856C",
"C  c #568B6C",
"Z  c #598E6D",
"A  c #5D926D",
"S  c #61976E",
"D  c #649A6F",
"F  c #699E73",
"G  c #6FA377",
"H  c #76A87D",
"J  c #6A6682",
"K  c #6E6B87",
"L  c #716C8B",
"P  c #6F7385",
"I  c #707682",
"U  c #7D7E82",
"Y  c #75718F",
"T  c #777C8F",
"R  c #777491",
"E  c #797693",
"W  c #7A7D93",
"Q  c #7D7D99",
"!  c #808080",
"~  c #8E8E92",
"^  c #82829C",
"/  c #87909B",
"(  c #919191",
")  c #97979A",
"_  c #9B9B9D",
"`  c #88B68B",
"'  c #8AB98D",
"]  c #91BE92",
"[  c #8486A0",
"{  c #878BA2",
"}  c #898CA5",
"|  c #8C90A6",
" . c #8D93AA",
".. c #9096AD",
"X. c #9399AD",
"o. c #969DB2",
"O. c #97A2AE",
"+. c #9AA2B3",
"@. c #9BA6B2",
"#. c #9AA2B5",
"$. c #9CA5B7",
"%. c #9DA8B4",
"&. c #9DA7B8",
"*. c #9EA8B9",
"=. c #A2A2A2",
"-. c #A3A3A5",
";. c #A4A4A4",
":. c #A0ABBB",
">. c #A3AFBD",
",. c #A4B0BE",
"<. c gray70",
"1. c gray71",
"2. c #BBBBBB",
"3. c #BBBBBC",
"4. c gray74",
"5. c #A7B3C0",
"6. c #A7B4C0",
"7. c #A8B5C1",
"8. c gray77",
"9. c gray80",
/* pixels */
"( ( ( ( ;.2.2.2.2.<.( ( ( ( ( 2.2.2.2.2.( ( ( ( ( 2.2.2.2.2._ ( ( ( ( =.2.2.2.2.1.( ( ( ( ( 2.2.2.2.2.( ( ( ( ( 1.2.2.2.2.=.( ( ",
"                                                                                                                                ",
"                                                                                                                                ",
"] ] ] ] ] ] ] ] ] ] ] ] ] ] ] ] ] ] ] ] ] G D ' ] ] ] ] ] ] ] ] ] ] ] ] ] ] ] H D D D ` ] F D ] ] ] ] ] ] ] ] ] ] ] ] ] ] ] ] ] ",
"] ] ] ] ] ] ] ] ] ] ] ] ] ] ] ] ] ] ] ] ] G D ' ] ] ] ] ] ] ] ] ] ] ] ] ] ] ] H D D D ` ] F D ] ] ] ] ] ] ] ] ] ] ] ] ] ] ] ] ] ",
"D D D D D D D D D D D D D D D D D D D D D D D D D D D D D D D D D D D D D D D D D D D D D D D D D D D D D D D D D D D D D D D D ",
"D D D D D D S S S S S S S S S S S S D D D D D D D S S S S S S S S S S S S S D D D D D D D D D D D S S S S S S S S S S D D D D D ",
"D D D D D D j j j h < 1 j j j j j C D D D D D D D k j j j < < j j j j j j C D D D D D D D D D D D < < j j j j j j j j D D D D D ",
"A S D D D D l k f 2 1 2 j j j j j V A S D D D D D l l f f 1 1 j j j j j j V A S D S A S D D D D D 2 2 f f j j j j j j A A S D S ",
"j A D D D D D A   $ j j j j j j j j j Z D D D D D D D     j j j j j j j j j j C D B j A D D D D D D D     j j j j j j j j Z D B ",
"j A D D D D D A   $ j j j j j j j j j Z D D D D D D D     j j j j j j j j j j C D B j A D D D D D D D     j j j j j j j j Z D B ",
"A S D D D D D A   $ j j j j j j j V A V l A D D D D D     j j j j j j j j V A V l C A S D D D D D D D     j j j j j j A A V l Z ",
"D D D D D D D A   $ j j j j j j j C D B j A D D D D D     j j j j j j j j C D V j Z D D D D D D D D D     j j j j j j D D B j A ",
"D D D D D D $ $   . O & j j j V S V k Z S S D D D $ $     O O j j j j j j k k k j Z D D D D D D D $ $     O O j j j j k k k j A ",
"D D D D D D           & j j j V D V j Z D D D D D O           j j j j j j j j j j Z D D D D D D D             j j j j j j j j A ",
"D D D D D D           & j j j j j j j Z D D D D D O           j j j j j j j j C S B j A D D D D D             j j j j j j j j A ",
"D D D D D D           & j j j j j j j Z D D D D D O           j j j j j j j j C D B j A D D D D D             j j j j j j j j A ",
"D D D O       o < ;       & j j j j j Z D D D $       < <         & j j j C D V j Z D D D D D o       < <         j j j j j j A ",
"D D D O       o < ;       & j j j j j Z D D D $       < <         & j j j C D V j Z D D D D D o       < <         j j j j j j A ",
"D &         < < < < < < < *   - j C D D D 4       : < < < < <     & j j j j j j j Z D D D D D o   < < < < < <         j j Z D D ",
"D &         < < < < < < < *   - j C D D D 4       : < < < < <     & j j j j j j j Z D D D D D o   < < < < < <         j j Z D D ",
"      : < < < 1 j h < < < < < *               : < < < j j < < < < =   - j j j j j Z D D D $   < < < < j j < < < <               ",
"      : < < < 1 j h < < < < < *               : < < < j j < < < < =   - j j j j j Z D D D $   < < < < j j < < < <               ",
"      : < < j j j j j j j 2 < *           ; < < < j j j j j j < < =       - j C D D D 4   : < < < j j j j j j < < < <           ",
"      : < < j j j j j j j 2 < *           ; < < < j j j j j j < < =       - j C D D D 4   : < < < j j j j j j < < < <           ",
"            j j j j j j j >                   f j j j j j j j                                 j j j j j j j j j j         8 p p ",
"            j j j j j j j >                   f j j j j j j j                                 j j j j j j j j j j         8 p p ",
"< < < o       O j j j ,                           h j j j         % < < < *                       j j j j j j                   ",
"< < < O o o   O h h h ,                           f h h h     o o % < < < * o .                   h h h h h h         X X + + + ",
"< < < < < <                                                   < < < < < < < < %                                       L L [ ....",
"< < < < < <           X + + + X                               : : : < < < : : %                                   3 3 R R { ....",
"< < < < < <           @ p p p 8                                   % < < < *                                       L L ..........",
"< < < ; ; ;       X @ 6 p p d w 5 +                               # ; ; ; %                                       L L } } } } } ",
"< < < o           + p p p d L L L q                                                                               L L L L L L L ",
"= = = o           + p p p d L L L q                                                                               y y L L L L L ",
"                  + p p p d L L L q                                                                                   L L L L L ",
"                  + p p p d L L L q                                                               w w z z z z         t t t t t ",
"                  + p p p d L L L q                                                               L L ........                  ",
"                  + p p p d L L L q                                                               L L ........                  ",
"                  3 L E ......^ L q                                           8 p @           L L L L ............        P ....",
"                  3 L E ......^ L q                                           8 p @           L L L L ............        P ....",
"                      5 L Q ..M                                           6 p p p p p +       L L L L L L ............    P ....",
"                      5 L Q ..M                                           6 p p p p p +       L L L L L L ............    P ....",
"                                                                          6 p p p p p +       L L L L L L L L 7.7.7.7.....r   T ",
"                                                                          6 p p p p p +       L L L L L L L L 7.7.7.7.....r   T ",
"                                              J L L L L L                     8 p @               L L L L 7.7.7.7.7.7.7.7.c   s ",
"                                              J L L L L L                     8 p @               L L L L 7.7.7.7.7.7.7.7.c   s ",
"L L L L L L           5 L L L L L q       d L | ......L L L L                                         L L 7.7.7.7.7.7.7.7.c   s ",
"L L L L L L . .     . 6 L L L L L w . .   m L | ......L L L L . . .       . . . . .                   L L 5.5.7.7.7.7.,.,.c . s ",
"L } ........L J   3 L E ..[ L L L L L 9   W ..........L L L L L L a       e L L L 6                       L L 7.7.7.7.    y L 5 ",
"L } ........Y K   3 Y Q ..[ L L L L L 9   W ..........L L L L L L a   O + y Y L L 9 + .                   J J @.@.@.@.    y L 9 ",
"L } ..........{   7 ......[ L L L L L 9   W ..........L L L L L L a   9 L ^ ..Q L L L 3                                   y L } ",
"L } ..........{   7 ......[ L L L L L 9   W ..........L L L L L L a   e E [ ..Q L L L 3                               3 3 m Q | ",
"L } ..........{   7 ......[ L L L L L 9   W ..........L L L L L L a   i ......Q L L L 3                               L L X.7.7.",
"L } ..........{   7 ......[ L L L L L 9   W ..........L L L L L L a   i ......Q L L L 3   5 6 6 6 6 6 6 6     6 6 6 6 ^ ^ +.7.7.",
"L } ..........{   7 ......[ L L L L L 9   W ..........L L L L L L a   i ......Q L L L 3   J L L L L L L L     L L L L 7.7.7.7.7.",
"{ o.#.........{   7 ......| { Q L L L 9   W ......#.#.{ { L L L L a   i ......Q L L L 3   J L Q Q Q Q Q Q 9 9 y y L L 7.7.7.7./ ",
"7.7.7.X.......{   7 ......#.7.| L L L 9   W ......5.7.7.7.L L L L a   i ......Q L L L 3   J L  ...........L L     L L 7.7.7.7.r ",
"7.7.7.&.$.$...{   7 ..o.$.:.7.#.| Q L 9   W ..#.$.6.7.7.7.| | L L a   i ..o.$.X.| E L 3   J L  .......$.$.| |     e e I I I I U ",
"7.7.7.7.7.7...{   7 ..o.7.7.7.7.7.{ L 9   W ..,.7.7.7.7.7.7.7.L L a   i ..$.7.7.7.^ L 3   J L  .......7.7.7.7.                -.",
"7.7.7.7.7.6.i u   + i I 7.7.7.7.7.{ L 9   e i %.7.7.7.7.7.7.7.L L a   b *.>.7.7.7.^ L 3   9 9 Q Q *.*.7.7.7.7.    x x x x U ~ 3.",
"7.7.7.7.7.6.          r 7.7.7.7.7.{ L 9       O.7.7.7.7.7.7.7.L L a   n 7.7.7.7.7.^ L 3       L L 7.7.7.7.7.7.    ! ! ! ! <.9.9.",
"i i i i i i _ _ _ ( v c i i i i i 0 6 ! v v v g i i i i i i i 6 6 0 v c i i i i i 9 6 x v v _ 9 6 i i i i i i v ) 1.1.1.1.=.) ) ",
"          . 9.9.9.4.! v               _ ! ! ! 3                   7 ! x               N ! ! 9.O               ! 8.9.9.9.9._ ! ! "
};
