/* XPM */
static char *_3e4175f426a43dbe5eb9ede8e074577Z2jRdKE3j73YNXTw[] = {
/* columns rows colors chars-per-pixel */
"64 64 131 2 ",
"   c None",
".  c #161C2E",
"X  c #171E30",
"o  c #181F30",
"O  c #1B2233",
"+  c #1F2B3B",
"@  c #202636",
"#  c #222837",
"$  c #232C3A",
"%  c #282F3C",
"&  c #26313E",
"*  c #2B323E",
"=  c #2B3541",
"-  c #2D3B45",
";  c #2F3E48",
":  c #303F49",
">  c #34444C",
",  c #3C454D",
"<  c #37484F",
"1  c #354C56",
"2  c #3A4C53",
"3  c #384F58",
"4  c #3D5156",
"5  c #3B545D",
"6  c #3D5B65",
"7  c #40484F",
"8  c #444C52",
"9  c #455156",
"0  c #455559",
"q  c #48565A",
"w  c #455B5E",
"e  c #4A5B5E",
"r  c #475E60",
"t  c #4B5F60",
"y  c #405F68",
"u  c #4D6464",
"i  c #4E6867",
"p  c #43646C",
"a  c #48666F",
"s  c #4F6868",
"d  c #506A69",
"f  c #56706D",
"g  c #496C74",
"h  c #516F79",
"j  c #4B7177",
"k  c #4F7079",
"l  c #547574",
"z  c #5E7771",
"x  c #567877",
"c  c #51747A",
"v  c #577A7A",
"b  c #597D7D",
"n  c #5A807F",
"m  c #6B8379",
"M  c #587B82",
"N  c #5B8282",
"B  c #5D8887",
"V  c #5F848B",
"C  c #5E8C8C",
"Z  c #5E9092",
"A  c #608F8F",
"S  c #7D9384",
"D  c #639595",
"F  c #6D9595",
"G  c #639798",
"H  c #6D9699",
"J  c #669D9D",
"K  c #6A9D9E",
"L  c #7AA79E",
"P  c #6DA4A4",
"I  c #74A3A2",
"U  c #70A7A8",
"Y  c #74ABAB",
"T  c #78AFAF",
"R  c #78AFB0",
"E  c #7CB3B4",
"W  c #ACBD9F",
"Q  c #98BAA6",
"!  c #80B7B7",
"~  c #80B7B8",
"^  c #87BCBD",
"/  c #87BDBE",
"(  c #87BEBF",
")  c #85BCBD",
"_  c #84BABB",
"`  c #88BFBF",
"'  c #89BEBF",
"]  c #AEBFA1",
"[  c #97C4BC",
"{  c #B7CFAF",
"}  c #BACEAE",
"|  c #BDD0AE",
" . c #A0C8BB",
".. c #A9CFBE",
"X. c #ACCEBB",
"o. c #AED1BC",
"O. c #B9D0B0",
"+. c #B2D2BC",
"@. c #C0CFAB",
"#. c #C4D3AE",
"$. c #C6D5AF",
"%. c #C7D6B0",
"&. c #C6DAB7",
"*. c #CFDEB5",
"=. c #CCDDB6",
"-. c #CAD9B2",
";. c #C2D9B8",
":. c #D0DEB5",
">. c #D0DEB5",
",. c #88BFC0",
"<. c #88BFC0",
"1. c #89C0C1",
"2. c #8AC0C0",
"3. c #8AC1C2",
"4. c #8BC2C3",
"5. c #8BC2C2",
"6. c #8FC4C3",
"7. c #8CC3C4",
"8. c #8EC4C4",
"9. c #8CC3C4",
"0. c #93C5C0",
"q. c #90C5C3",
"w. c #92C5C3",
"e. c #93C6C2",
"r. c #94C6C2",
"t. c #94C6C2",
"y. c #98C8C1",
"u. c #99C8C1",
"i. c #9CC9C0",
"p. c #9ECAC0",
"a. c #9DCAC0",
/* pixels */
"                                                                                                                                ",
"> d d d d d d d d 7.7.7.7.7.7.Y J J P E 7.7.7.7.7.7.7.7.7.7.7.7.7.7.7.7.7.7.7.7.7.7.7.4.E J J J J J J J J J J J J D x u - - * 8 ",
": u d d d d d d n 7.7.7.7.7._ P J P ! 7.7.7.7.7.7.7.7.7.7.7.7.7.7.7.7.7.7.7.7.7.7.7.7.,.J J J J J J J J J J J J J G N d d u 8 8 ",
"= q u d d d d b K _ 4.7._ _ P J J E 7.7.9.7.7.7.7.7.7.7.7.7.7.7.7.7.7.7.7.7.7.7.7.7.7.,.J J J J J J J J J J J J J C d s u t 8 8 ",
"= 8 q u d d l J J J _ _ P J J J J T ` 7.7.7.7.7.7.7.7.7.7.7.y.i.i.i.q.7.7.7.7.7.7.7.4.~ J J J J J J J J J J J J J N u r 8 8 8 8 ",
"= 8 8 0 u u d J J J J J J J J J J J T ,.7.7.7.7.8.y.y.y.y.y.&.:.:.:.o.y.y.y.y.y.q.( ~ J J J J J J J J J J J D D M e 8 8 8 8 8 8 ",
"= 8 8 8 8 8 e D D D D D D D D D D D J T ( ( ( 4.i.:.:.:.:.:.:.#.@.@.@.@.@.@.$.:.{ I I I J J D D D D D D D b d r 9 8 8 8 8 8 8 8 ",
"* 8 8 8 8 8 8 8 8 8 8 8 u d d d d d N J J J J L %.%.%.%.%.%.%.m d d d d d d S %.%.%.%.| J J d d d d d d d d d d d u 8 8 8 8 8 8 ",
". * 8 8 8 8 8 8 8 8 s d d d d d d d d d d d d d d d d d d d d d d d d d d d d d d d d d d d d d d d d d d d d d d d u 8 8 8 8 . ",
". * 8 8 8 8 8 8 8 s d d d d d d d d d d d d d d d d d d d d d d d d d d d d d d d d d d d d d d d d d d d d d d d d u 8 8 8 8 . ",
". o * 8 8 9 u 8 8 d d d d d d d d d d d d d d d d d d d d d d d d d d d d d d d d d d d d d d d d d d d d d d d d d u 8 8 7 O . ",
". . % 8 0 u u 8 u d d d d d d d d d d d d d d d d d d d d d d d d d d d d d d d d d d d d d d d d d d d d d d d d d u 8 , O . . ",
". . O * 0 d u 9 d d d d d d d d d d d d d d d d d d d d d d d d d d d d d d d d d d d d d d d d d d d d d d d d d 0 $ @ O . . . ",
"2 - . O $ ; s u d d d d d d d d d d d d d d d d d d d d d d d d d d d d d d d d d d d d d d d d d d d d d d 2 & & $ . . . . X 0 ",
"e r - . . O = = - d d d ; = = = = = = = = = = = = = = = = = = = w d d d d d 0 = = = = = = = = = = = = = = = $ . . . . O 4 4 4 d ",
"e d r 2 : . . . . - - - O . . . . . . . . . . $ g g V V V V V V H I I I I I H V V V V M . . . . . . . . . . . . $ 2 2 4 d d d d ",
"e d d d u < < < < < < p p p p p p k M M M M c j J P 7.7.7.7.7.7.7.7.7.7.7.7.7.7.7.7.7.( M M M M M M g p p p 5 < 0 d d d d d d d ",
"e d d d d d d d d d N J J J J J J E 7.7.7.7.( T P E 7.7.4.7.7.7.7.7.7.7.7.7.7.7.7.7.7.7.7.7.7.7.7.7.Y J J J D N N b d d d d d d ",
"e d d d d d d d d N J J J J J J Y _ 7.7.7.7.7._ P 7.7.7.7.7.7.7.7.7.7.7.7.7.7.7.7.7.7.7.7.7.7.7.7.7.Y J U P J J J C d d d d d d ",
"9 d d d d d x d d J J J J J J J E 7.7.7.7.7.7.( E 7.7.7.7.7.7.7.7.7.7.7.7.7.7.7.7.7.7.7.7.7.7.7.7.7.Y J E ! P J J D x d d d d d ",
"> d d d d N D d b J J J J J J J E 7.7.7.7.7.7.7.7.7.7.7.7.7.7.7.7.7.7.7.7.7.7.7.7.7.7.7.7.7.7.7.7.7.Y P _ 7.E J J J D x d d d u ",
": u d d x J D f J J J J J J J P _ 7.7.7.7.7.7.7.7.7.7.7.7.7.7.7.7.7.7.7.7.7.7.7.7.7.7.7.7.7.7.7.7._ P E 7.7.E J J J J D d d d 8 ",
"= q u d x J D f J J J J J J J E 7.7.7.7.7.7.7.7.7.7.7.7.7.7.7.7.7.7.7.7.7.7.7.7.7.7.7.7.7.7.7.7.7.P J E 7.( T J J J J D d d u 8 ",
"= 8 q u x J D x J J J J J J J E 7.7.7.7.7.7.7.7.7.7.7.7.7.7.7.7.7.7.7.7.7.7.7.7.7.7.7.7.7.7.7.7.7.P J E ( Y J J J J J D d u 8 8 ",
"= 8 8 q l D D J J J J J J J J E 7.7.7.7.7.4.( ^ 7.7.7.7.q.r.r.r.r.r.6.7.7.7.7.7.7.7.7.7.7.7.7.7.,.P J J J J J J J J D C u 8 8 8 ",
"= 8 8 8 8 8 e J J J J J J J J E 4.4.4.4.4.E C b ` ` q.q.*.:.:.:.:.:...q.q.q.q.q.q.6.4.7.7.4.7.4.P J J J J J J J J N 8 8 8 8 8 8 ",
"= 8 8 8 8 8 8 8 9 J J J J J J J J J J J J C d d d z *.*.*.*.*.*.*.*.*.*.*.*.*.*.*.O.P 7.4.J 4.P J J J J J J J b 8 8 8 8 8 8 8 8 ",
"= 8 8 8 8 8 8 8 8 9 9 d d d d d d d d d d d d d d d f f f f f f f f f f f f f f f f d d d d d d d d d d d d d r 8 8 8 8 8 8 8 8 ",
"o = 8 8 8 8 8 8 u 8 u d d d d d d d d d d d d d d d d d d d d d d d d d d d d d d d d d d d d d d d d d d d d s e 8 9 u 8 8 8 O ",
". * 8 8 8 8 9 u s 8 s d d d d d d d d d d d d d d d d d d d d d d d d d d d d d d d d d d d d d d d d d d e e d t 8 0 d u 8 8 . ",
". O = 8 8 8 9 d d u d d d d d d d d d d d d d d d d d d d d d d d d d d d d d d d d d d d d d d d d d d d e 8 e i e 0 d u 7 @ . ",
". . O = 8 8 9 u q d d d d d d d d d d d d d d d d d d d d d d d d d d d d d d d d d d d d d d d d d d d d e 8 e d u 0 d u # . . ",
", - . O $ * 9 u 8 d d d d d d d d d d d d d d d d d d d d d d d d d d d d d d d d d d d d d d d d d d d d e 8 e d u , = & . . . ",
"e w - . . O * - % - i d d d d d d d d d d d d u - - - - u d d d d d d d 4 - - - - < d d d d d d d d < - - = % = - = $ . . O 2 . ",
"e d w < - . . . . . - : u d d d d d d d w : : = . . . . - : u d d d 4 : $ . . . . O : : : : : : : : O . . . . . . . . O < 2 s < ",
"e d d d r > > > > > > 6 b N N N N N N N c p h h h h h h h h F F F F M h h h h h h h h h h h h y 6 6 6 6 3 > > > > > > 2 d d d d ",
"e d d d d d d d d d n J J J J J J P T P J Y 7.7.7.7.7.7.7.7.7.7.7.7.7.7.7.7.7.7.7.7.7.7.7.7.7.P J J J J C N l d d d d d d d d d ",
"q u d d d d d v d b J J J J J J P _ 7.E J Y 7.7.7.7.7.7.7.7.7.7.7.7.7.7.7.7.7.7.7.7.7.7.7.7.7.P J J J J J J C l d d d d d d d r ",
"8 e d d d d N D d J J J J J J J E 7.7.E P E 7.7.7.7.7.7.7.7.7.7.7.7.7.7.7.7.7.7.7.7.7.7.7.7.7.P J J J J J J J A x l d d d d d 8 ",
", q u d d l J J x J J J J J J J E 7.( T T 7.7.7.7.7.7.7.7.7.7.7.7.7.7.7.7.7.7.7.7.7.7.7.7.7._ P J J J J J D A A A N d d d d u 8 ",
"= 8 q u d l J J J J J J J J J J R ,.E J T 7.7.7.7.7.7.7.7.7.7.7.7.7.7.7.7.7.7.7.7.7.7.7.7.7.P J J J J J J B f d d d d d d u 8 8 ",
"= 8 8 0 u l J J D J J J J J J J J T T J Y 7.7.9.7.7.7.7.7.7.7.r.r.r.r.r.q.7.7.7.7.7.7.7.7.( K J J J J J J J N d d d s u u 8 8 8 ",
"= 8 8 8 8 r D A d D D D G G G J J J J J Y 4.7.8.q.q.q.q.q.q.q.;.:.:.:.:.+.q.q.q.q.q.q.,.( J J G G G G G G G N u u u u 8 8 8 8 8 ",
"* 8 8 8 8 8 8 8 8 8 8 u d d d C J J J J J U ` [ -.-.-.-.-.-.-.-.*.:.:.:.:.:.:.:.*.-.} J J J d d d d d d d d e 8 8 8 8 8 8 8 8 8 ",
". * 8 8 8 8 8 8 8 8 s d d d d d d d d d d d d d d d d d d d d d W :.:.:.:.:.:.:.] d d d d d d d d d d d d d d e 8 8 8 8 8 8 8 . ",
". * 8 8 8 8 8 8 8 s d d d d d d d d d d d d d d d d d d d d d d d f f f f f f f d d d d d d d d d d d d d d d d r 8 8 8 8 8 8 . ",
". * 8 8 8 8 8 8 8 d d d d d d d d d d d d d d d d d d d d d d d d d d d d d d d d d d d d d d d d d d d d d e e t 8 8 8 8 8 8 . ",
". O = 8 8 8 8 8 8 d d d d d d d d d d d d d d d d d d d d d d d d d d d d d d d d d d d d d d d d d d d d d e e s e 9 u 8 7 O . ",
"% . O = 8 8 8 8 u d d d d d d d d d d d d d d d d d d d d d d d d d d d d d d d d d d d d d d d d d d d d d e 8 e u 0 u , O . . ",
"9 - . $ 8 8 8 9 d d d d d d d d d d d d d d d d d d d d d d d d d d d d d d d d d d d d d d d d d d d d d d e 8 , & $ & # . . 4 ",
"e r - O = 8 8 9 d d d d d d d d d d d d d d d d d d d d d d d d d d d d d d d d d d d d d d d d d > = = = = * $ @ . . . . O 4 d ",
"e d r - O % = 8 e d d d d d d d d d d d d d d d d d i - - - - - w d 2 - - - - - - - - - - - - - - O . . . . . . . . . O 2 2 d d ",
"e d d r - . O * * : : : : : : : : : : : : : : : : : - . . . . . = : $ . . . . . . + p p p p O . . . . . . . . $ < < < 2 d d d d ",
"e d d d r > - . . . . . . . 1 6 6 6 6 p h h g 6 6 6 h h h h h h h h h h h a 6 p h M T J J J p 6 6 6 6 6 6 6 3 4 d d d d d d d d ",
"e d d d d d u ; ; ; 5 5 5 5 C J J J P ~ 7.7.( Y P E 7.7.7.7.7.7.7.7.7.7.7._ U Y 7.7.( J J J J J J J J J J J A l d l x d d d d d ",
"e d d d d d d d b b J J J J J J J J E 7.7.7.7.( R 7.7.7.7.7.7.7.7.7.7.7.7.7.E P _ 7.,.Y J J J J J J J J J J J A l x D x d d d d ",
"e d d d d d d b J J J J J J J J J P E 7.7.7.7.7.7.7.7.7.7.7.7.7.7.7.7.7.7.7._ P U 7.7.,.J J J J J J J J J J J J C x J D d i 4 4 ",
"q u d d d d b J J J J J J J J J J E 7.7.7.7.7.7.7.7.7.7.7.7.7.7.7.7.7.7.7.7.7._ T 7.7.,.J J J J J J J J J J J J A b D C 0 4 . . ",
"8 q u u d l J J J J J J J J J J J E 7.7.7.7.7.7.7.7.7.7.7.7.7.7.7.7.7.7.7.7.7.7.7.7.7.4.P J J J J J J J J J J J J B u g . . @ @ ",
"8 8 8 0 u l J J J J J J J J J J J E 7.7.7.7.7.7.8.r.r.r.r.r.8.7.7.7.7.7.7.7.q.r.r.r.r.r.4.P J J J J J J J J J J D p . . . @ 8 8 ",
"8 8 8 8 0 l D D J J J J J J J J J E 9.q.q.q.r.r.i.:.:.:.:.:.i.q.q.6.7.q.q.q...:.:.:.:.=.q.7.P J J D Z Z Z Z Z Z p . . O @ 8 8 8 ",
"8 8 8 8 8 8 8 9 d d J J J J J J J J Q -.-.-.-.-.-.-.-.-.-.-.-.-.-. .,.X.-.-.-.-.-.-.-.-.-.,.( J G - . . . . . . o o $ 8 8 8 8 8 ",
"= 8 8 8 8 8 9 d d d d d d d d d d d d d d d d d d d d d d d d d d d d d d d d d d d d d d d O . . . . . . . . - r 8 8 8 8 8 8 8 ",
"= 8 8 8 8 8 9 d d d d d d d d d d d d d d d d d d d d d d d d d d d d d d d d d d d d d d d u u u u u u u u u u d t 8 8 8 8 8 8 "
};
